<svg xmlns="http://www.w3.org/2000/svg" viewBox="0 0 558 558"><defs><style>.cls-1{fill:#fff;}</style></defs><title>Asset 2</title><g id="Layer_2" data-name="Layer 2"><g id="Layer_2-2" data-name="Layer 2"><circle class="cls-1" cx="279" cy="279" r="279"/><path d="M487,55H71a48,48,0,0,0-48,48V455a48,48,0,0,0,48,48H487a48,48,0,0,0,48-48V103A48,48,0,0,0,487,55ZM55,103A16,16,0,0,1,71,87h48v64H55ZM503,455a16,16,0,0,1-16,16H71a16,16,0,0,1-16-16V183H503Zm0-304H151V87H487a16,16,0,0,1,16,16Z"/><path d="M262,420.42,239.67,414a4.4,4.4,0,0,1-3-5.45l49.91-171.9a4.4,4.4,0,0,1,5.45-3l22.3,6.47a4.4,4.4,0,0,1,3,5.45l-49.91,171.9A4.38,4.38,0,0,1,262,420.42Zm-41.67-41,15.9-17a4.39,4.39,0,0,0-.29-6.29L202.78,327l33.13-29.14a4.35,4.35,0,0,0,.29-6.28l-15.9-17a4.4,4.4,0,0,0-6.22-.18L161.4,323.79a4.35,4.35,0,0,0,0,6.4l52.68,49.39a4.36,4.36,0,0,0,6.22-.18Zm119.62.22,52.68-49.39a4.35,4.35,0,0,0,0-6.4L339.92,274.4a4.44,4.44,0,0,0-6.22.18l-15.9,17a4.39,4.39,0,0,0,.29,6.29L351.22,327l-33.13,29.14a4.36,4.36,0,0,0-.29,6.29l15.9,17a4.4,4.4,0,0,0,6.22.22Z"/></g></g></svg>