<svg xmlns="http://www.w3.org/2000/svg" viewBox="0 0 558 575">
	<defs>
		<style>.cls-1{fill:#fff;}</style>
	</defs>
	<title>Contact</title>
	<g id="Layer_2" data-name="Layer 2">
		<g id="Layer_2-2" data-name="Layer 2">
			<circle class="cls-1" cx="279" cy="279" r="279"/>
			<path d="M471,63H87a64.06,64.06,0,0,0-64,64V415a64.06,64.06,0,0,0,64,64h96v84a12,12,0,0,0,12,12,11.48,11.48,0,0,0,7.1-2.4L327,479H471a64.06,64.06,0,0,0,64-64V127A64.06,64.06,0,0,0,471,63Zm32,352a32.09,32.09,0,0,1-32,32H316.3l-8.5,6.4L215,523V447H87a32.09,32.09,0,0,1-32-32V127A32.09,32.09,0,0,1,87,95H471a32.09,32.09,0,0,1,32,32ZM354.8,300.3a100.23,100.23,0,0,1-151.6.1,16,16,0,1,0-24.3,20.8,132.3,132.3,0,0,0,200.3-.1,16,16,0,1,0-24.4-20.8ZM215,247a24,24,0,1,0-24-24A23.94,23.94,0,0,0,215,247Zm128,0a24,24,0,1,0-24-24A23.94,23.94,0,0,0,343,247Z"/>
		</g>
	</g>
</svg>