<svg xmlns="http://www.w3.org/2000/svg" viewBox="0 0 586.86 208.8"><title>Asset 4</title><g id="Layer_2" data-name="Layer 2"><g id="Layer_1-2" data-name="Layer 1"><path d="M2.47,69.81c.3,1.88,1.19,2.67,3.07,2.67H23v2H1.58c-.69,0-1-.3-1.08-1C.43,73,.36,72.48.3,72S0,57.63,0,52.28V5.45c0-.5.59-.8,1.09-.8l.89.1V48.32c0,3.76.2,12.87.3,17.43V68C2.34,68.62,2.41,69.21,2.47,69.81ZM4.26,68c0-.49-.3-14.35-.3-19.7V1.49c0-.5.59-.8,1.09-.8l8,.3.89.79V4.16c0,1.09-.3,6.43-.3,7.42v49a1.09,1.09,0,0,0,.8.79H26.14c.3,0,.79.79.79,1.09v8H5.54c-.69,0-1-.3-1.08-1C4.39,69,4.32,68.52,4.26,68Z"/><path d="M52.78,68.62c0,1.19,0,3.46,2.77,3.46.79,0,3,.1,5.15.1h5.24c.5,0,2.48.1,4.56.2,1,0,2,.1,2.77.1l.1,1.48s-.3.5-.49.5a1.31,1.31,0,0,0-.5.1h-.79c-1.09,0-8.62-.4-9.61-.4-1.58,0-8.81-.1-10.39-.1-.79,0-.8-1-.8-1.48v-.5c.2-13.17.3-26.34.3-39.41,0-2.47.2-23.07.1-25.54V5.35l.5-.5h1.48v2c0,4.26,0,11.29-.1,16.24v5.64c0,13.07-.1,26.24-.29,39.41Zm2-.5c.19-13.17.29-26.34.29-39.41,0-2.47.2-23.07.1-25.54V1.39l.5-.5H59c5.05-.2,17.13.1,17.13.1l.5.2a16.43,16.43,0,0,1,.3,2.08v.49c0,1.49-.1,4.85-.1,4.85l-.5.5h-1c-3.07,0-5.94-.2-8.91-.1a1.52,1.52,0,0,0-1.58,1c-.1,5.55-.5,12.18-.4,17.53V29.7a2.17,2.17,0,0,0,2.08.8c2.08,0,4.26-.3,6.34-.4.49,0,.79,0,1,.79v1.69c0,.59.1,2.08.09,2.08-.09,1.18-.19,2.37-.29,3.56.2-.69-1.19.69-1.69.79-1.78,0-3.56-.2-5.24-.2-1.09,0-1.59,0-2.08.8a29.42,29.42,0,0,0-.2,3c0,1.78-.3,12.47-.3,15.24,0,0,.1,1.29.1,1.49v1.78a1.13,1.13,0,0,0,.79.69l12.08-.19c.07,2.8.14,5.61.2,8.41,0,0-.3.5-.49.5a1.34,1.34,0,0,0-.5.1h-.79c-1.09,0-8.62-.4-9.61-.4-1.58,0-8.81-.1-10.39-.1-.79,0-.79-1-.79-1.48ZM66.44,43v-.69a4.15,4.15,0,0,1,.1-1.49h.2c.79,0,1.58.1,2.37.1a1.48,1.48,0,0,0,.7.1,6.73,6.73,0,0,0-.1,1.19c.1.69-1.19.69-1.69.79Zm.4-30V11c1.58-.1,3.16,0,4.85,0h1.19v1.59l-.5.49h-1C69.81,13.07,68.32,13.07,66.84,13Z"/><path d="M109,70.79A5.14,5.14,0,0,0,113.67,73h3v.1c0,.2-.3,1.29-.3,1.59l-.19.29h-6.44c-.59,0-2.18,0-2.67-.79V72.28c0-.59.29-4.26.29-4.85,0-3.17.5-17.53.5-20.5V40.2c0-.2.3-1.58.29-1.78,0-3.57.5-19.51.5-23v-.8c0-.49,0-1.28-.79-1.28H100.9c-.3,0-.79-.3-1.09-.3s-.5-.59-.5-.59V5.35s.3-.6.5-.6h1.48v6.74l2.08-.2a3.76,3.76,0,0,0,1.49.1h5.74v.1c0,1.58-.1,7-.2,11.38-.1,4.85-.29,9.8-.29,11.59a2.11,2.11,0,0,0-.1.39,5.22,5.22,0,0,0-.2,1.39V43c0,1.49-.1,5.74-.2,10-.1,4.46-.3,8.91-.3,10.5,0,.1-.09,1.19-.19,2.28S109,68,109,68.32Zm2-2.47c0-.59.29-4.26.29-4.85,0-3.17.5-17.53.5-20.5V36.24c0-.2.3-1.58.3-1.78,0-3.57.49-19.51.49-23v-.8c0-.49,0-1.28-.79-1.28h-6.93c-.3,0-.79-.3-1.09-.3s-.5-.6-.5-.6V1.39s.3-.6.5-.6h1.38c1.79,0,17.33.3,19.21.3h4.56c.3,0,1.09.3,1.38.3l.2.29V9.6H122l-.3.3-.3.79V44.56c0,2.17-.79,20.49-.79,22.67v1.88c0,.2-.3,1.29-.3,1.59l-.19.29h-6.44c-.59,0-2.18,0-2.67-.79Zm12.37-54.75v-2h3.17v2Z"/><path d="M157,28.12h3.46l-.29.79L158.33,30l-4,.1c-.37-.36-.73-.73-1.09-1.09q2.63-6,5.24-12l.3-.69h-3.36l-.7-.6-.3-3.56V6.24l.3-1.09h1.69V8.42l.39,4.25,1.78,1.69h1.69q-2.43,5.49-4.85,11Zm.69-3.07,5.25-12-.2-.69h-3.36l-.7-.6c-.1-1.19-.2-2.37-.29-3.56V2.28l.29-1.09h9.41l1,.59c-.1,5.74-.1,11.49-.1,11.49q-2.43,5.84-4.85,11.68L162.29,26l-4,.1Z"/><path d="M196.25,8.61a30.83,30.83,0,0,0-1.09,8.62v4.55a28.82,28.82,0,0,0,5.64,12.08l1,1.29a70.94,70.94,0,0,0,5.85,6.44l2.17,2-.09-.1c3.66,3.46,5.15,4.85,5.15,11v3.17a5.34,5.34,0,0,1-.1,1v.79a2.66,2.66,0,0,1-1.89,1.09V58.42c0-5.65-1.18-7.72-3.76-10.4v-3l-1.68-1.48s-1.49,0-3.07-.1c-2.08-2.08-4-4.46-5.94-6.83a27.11,27.11,0,0,1-5.25-11.19V21.19C193.18,16.54,193.68,12,196.25,8.61Zm16.44,64.46c.49,0,1.48-.1,2.47-.2s1.78-.09,2-.09.3-.1.4-.1a9.16,9.16,0,0,1-4.66,2.08c-.49,0-3.56.29-4.15.29H207a11.73,11.73,0,0,1-8.61-3.46c-3.37-3.07-4.46-5.15-4.66-9.71,0-.79-.29-4.25-.29-4.55V49.8l.49-.49h1.49v4.06a13.57,13.57,0,0,0,.1,1.68V55c.1,1.19.19,2.68.19,3.07.2,5.15,1.49,7.53,5.35,11.09H201a13.5,13.5,0,0,0,10,4Zm-1.69-2a11.73,11.73,0,0,1-8.61-3.46c-3.37-3.07-4.46-5.15-4.66-9.71,0-.79-.29-4.25-.29-4.55V45.84l.49-.49h1.39c2.18,0,7.33.2,7.33.2l.49.29v10.1c0,.6.2,2.78.2,3.37l.3.59a5.13,5.13,0,0,0,4.75,2.58c1.39,0,3.66-.79,4.26-2.58,0-.29.19-1.78.19-2.27V54.46c0-8-2.27-8.91-7.82-14.36a96.85,96.85,0,0,1-6.63-7.43,27,27,0,0,1-5.25-11.18V17.23c0-6.64,1.09-13,7.43-16,.59-.3,2.27-.89,2.27-.89h6.44s2.48.89,3.37,1.09c1.28.59,3,.89,4.06,2.08,2.27,2.27,2.77,5.44,3.36,8.61v9.7l-.59.5h-8.61V13a21.68,21.68,0,0,0-.8-2.38c-.49-1.38-2-1.68-3.07-1.68-1.38,0-3.86,1.39-3.86,3.17v7.43a9.55,9.55,0,0,1,.2,1.18c1.19,4.26,4.46,6.84,7.53,9.71,5.24,5.15,10.69,11.19,11.88,18.71,0,.2.29,1.59.29,1.88v3.47c0,6-.49,9.5-4.85,13.76a9.59,9.59,0,0,1-5.35,2.57c-.49,0-3.56.3-4.15.3Zm-1.88-57.72V12.08c0-.69,1.19-1.19,1.88-1.19.5,0,1.09.1,1.19.4a7,7,0,0,1,.69,1.88V24.26h7.23v1.48l-.59.5h-6.24a21.28,21.28,0,0,1-2.38-2.77V16.93a20.42,20.42,0,0,0-.79-2.37A2.37,2.37,0,0,0,209.12,13.37Z"/><path d="M299,70.89l.79.5A18.4,18.4,0,0,0,307.64,73a24,24,0,0,0,5.45-.59c-2.38,2.08-5.75,2.57-9.41,2.57a15.76,15.76,0,0,1-6.93-1.38l-.79-.5c-3.17-3-4.26-5.64-4.85-9.9,0-.59-.2-2.18-.2-2.18V20.59a22.31,22.31,0,0,1,3.17-11.68,25.75,25.75,0,0,0-1.19,7.72v40.6s.2,1.58.2,2.28c.69,4.85,1.88,7.82,5.44,11.09Zm-4-11.68c0-.59-.2-2.18-.2-2.18V16.63a22.23,22.23,0,0,1,4-12.87l.3-.29C302.29.79,303.39,0,307.94,0a10.44,10.44,0,0,1,6.14,1.58c.59.6,2.67,2.48,3,3a20.68,20.68,0,0,1,2,3.27c1,2.87.69,8.42.79,12.38a1.4,1.4,0,0,0-.49,1.29,17,17,0,0,0,.29,1.88c0,1.38-1.88,1.09-2.67,1.09h-4.56l-1-1V14.16c0-2.38-.19-5.35-3.46-5.35-4.26,0-4,4.36-4,7.53v2.18c0,5.84.2,33.66.2,39.6.29,2.67,1.38,4.75,4.35,4.75a5.23,5.23,0,0,0,3.67-1.78c.29-.59,1.09-1.88,1.09-1.88V45.75l.29-.2h3.77c1.08,0,3.76.2,3.76.2l.49.29v9.9a20.84,20.84,0,0,1-2.18,9.11c-2.07,5-6.63,5.94-11.78,5.94a15.79,15.79,0,0,1-6.93-1.38l-.79-.5C296.75,66.14,295.66,63.47,295.07,59.21Zm11-45.84c.1-1.39.59-2.58,1.88-2.58s1.48,1.88,1.48,3.37v9.31c0,2.08.9,3,3,3h3.07a4.83,4.83,0,0,1,.2.89c0,1.38-1.88,1.09-2.67,1.09h-4.56c-.69,0-1-.3-1-1V18.12C307.44,16.44,307.34,14.36,306.06,13.37Zm3.56,36.14h1.69v9.11s-.6,1-.9,1.58a3.52,3.52,0,0,1-1.08.59V49.71Z"/><path d="M349.62,72.38a24.52,24.52,0,0,1,3,.2l2.78.2v1c-.7,1.78-6.54.59-8.91.59l-.5-.5a26.58,26.58,0,0,1-.3-4.45c0-3.57.3-34.16.3-37.83,0-7.52-.3-14.95-.3-22.47,0-1.29-.39-3.76,1.29-4.16h.69v.2c0,3.76,0,7.62.1,11.39s.2,7.32.2,11.09c0,1.68-.1,11.28-.2,19.1-.1,8.52-.1,16.94-.1,18.72,0,1.09.2,5,.6,5.54Zm0-6.93c0-3.57.3-34.16.3-37.82,0-7.53-.3-15-.3-22.48,0-1.29-.39-3.76,1.29-4.16,4.66,0,9.31-.1,14,.3,1.59.2,4.85.79,6.24,1.78,4.65,3.66,5.15,9.31,5.15,14.65,0,6.44-.79,11.19-5.64,16.94v.79c1.88,1.28,3.46,2.27,4.15,5.34.9,3.87,1.49,14.46,1.49,21.69a18.55,18.55,0,0,0,1.68,6.63c-.39,1.39-.49,1.19-2.27,1.19-2.48,0-4.56.1-7.23-.1-.89-.79-1.79-1.58-1.79-7,0-2.38.1-5.64.1-9,0-6.63.3-15.35-6.53-15.35a1.2,1.2,0,0,0-1.29,1.29c0,1.49-.3,9-.3,10.6,0,1.08.3,10.09.3,11.18,0,3,.4,5.65.4,7.93-.7,1.78-6.54.59-8.91.59l-.5-.5A26.58,26.58,0,0,1,349.62,65.45ZM366,28.71c.2-4.45.5-8.81.5-13.26,0-1.88-.6-5.25-2.88-5.75h-3.66l-.69.8v20l.49.49C362.1,31,364.38,31.39,366,28.71Zm-5.15,16.34c.1-1.68.1-3.17.1-4.16,4.06.7,3.86,7.82,3.86,13.27,0,1.78-.1,3.57-.1,5.25v3.76c0,6.34,1.49,7.72,3,9,1.89.1,4.26.1,6,.1l.3.79c-.39,1.39-.49,1.19-2.28,1.19-2.47,0-4.55.1-7.22-.1-.9-.79-1.79-1.58-1.79-7,0-2.38.1-5.64.1-9C362.79,53.66,362.89,48.12,360.81,45.05Zm3.67-29.6c0,3.26-.1,6.63-.3,9.9,0,.89-.2,1.88-.2,2.77a2.6,2.6,0,0,1-1.78.89c.1-3.17.3-6.34.3-9.6a8.33,8.33,0,0,0-1.29-4.66V11.39a11.58,11.58,0,0,0,2.08.29C364.08,12.08,364.48,14.26,364.48,15.45Z"/><path d="M404.38,68.62c0,1.19,0,3.46,2.77,3.46.79,0,3,.1,5.15.1h5.25c.49,0,2.47.1,4.55.2,1,0,2,.1,2.78.1L425,74s-.29.5-.49.5a1.34,1.34,0,0,0-.5.1h-.79c-1.09,0-8.61-.4-9.6-.4-1.59,0-8.81-.1-10.4-.1-.79,0-.79-1-.79-1.48v-.5c.2-13.17.3-26.34.3-39.41,0-2.47.19-23.07.1-25.54V5.35l.49-.5h1.49v2c0,4.26,0,11.29-.1,16.24v5.64c0,13.07-.1,26.24-.3,39.41Zm2-.5c.2-13.17.3-26.34.3-39.41,0-2.47.2-23.07.1-25.54V1.39l.49-.5h3.37c5.05-.2,17.13.1,17.13.1l.49.2a16.43,16.43,0,0,1,.3,2.08v.49c0,1.49-.1,4.85-.1,4.85l-.49.5h-1c-3.07,0-5.95-.2-8.92-.1a1.53,1.53,0,0,0-1.58,1c-.1,5.55-.5,12.18-.4,17.53V29.7a2.18,2.18,0,0,0,2.08.8c2.08,0,4.26-.3,6.34-.4.49,0,.79,0,1,.79v1.69c0,.59.1,2.08.1,2.08l-.3,3.56c.2-.69-1.19.69-1.68.79-1.78,0-3.57-.2-5.25-.2-1.09,0-1.58,0-2.08.8a29.42,29.42,0,0,0-.2,3c0,1.78-.29,12.47-.29,15.24,0,0,.1,1.29.1,1.49v1.78a1.11,1.11,0,0,0,.79.69l12.08-.19c.06,2.8.13,5.61.2,8.41,0,0-.3.5-.5.5a1.27,1.27,0,0,0-.49.1h-.8c-1.09,0-8.61-.4-9.6-.4-1.59,0-8.81-.1-10.4-.1-.79,0-.79-1-.79-1.48ZM418,43v-.69a4.15,4.15,0,0,1,.1-1.49h.2c.79,0,1.58.1,2.38.1a1.42,1.42,0,0,0,.69.1,6.73,6.73,0,0,0-.1,1.19c.1.69-1.19.69-1.68.79Zm.4-30V11c1.58-.1,3.17,0,4.85,0h1.19v1.59l-.5.49h-1C421.41,13.07,419.92,13.07,418.44,13Z"/><path d="M458,74.66c-.8,0-5.35-.3-6.14-.3-.5,0-.3-1-.3-1.29s.59-2.67.59-3c1.39-10.49,2.28-21.19,4-31.68.5-5.05,1.59-9.9,2.08-15,.2-2.08,1.09-4.26,1.39-6.34a65.49,65.49,0,0,1,2.08-11.78h1.19c-.6,3-1.19,6.33-1.29,7.82-.2.79-.4,1.58-.59,2.38a28.45,28.45,0,0,0-.8,3.76c-.29,2.57-.69,5.05-1.08,7.52s-.8,5.05-1,7.43c-1,6.24-1.78,13.27-2.47,19.51l-1.49,12.27a5.09,5.09,0,0,0-.29,1.39l.1-.2a10.19,10.19,0,0,0-.4,2c0,1.49-.79,3.27,2.28,3.27.39,0,1.58.1,2.87.2.4,0,1,.1,1.48.1-.29,1.18-.69,2-1.38,2Zm4-4c-.8,0-5.35-.3-6.14-.3-.5,0-.3-1-.3-1.29s.5-2.67.59-3l4-31.68c.49-5.05,1.58-9.9,2.07-15,.2-2.08,1.09-4.26,1.39-6.34a65.32,65.32,0,0,1,2.08-11.78c3.27,0,6.83-.2,10.4.1,1.48,4.85,1.68,9.9,2.47,14.85.2,2.67.89,5.64,1.29,8.32q.79,6.53,1.58,13.07c0,.29.3,1.38.3,1.58.79,8.91,3.07,23.17,3.27,24.55.2,2.38.79,4.56.79,6.94l-.3.29h-8.61c-1,0-1-1.78-1-2.67,0-2.08-.89-8.91-1.39-9.31h-8.51c-2,0-.5,11.69-3.17,11.69Zm4-7.73c.06-.66.13-1.32.2-2h7.22c.2,1.29.5,5.75.5,7.33s0,4.65,3,4.65h4.85c0,.5.1,1.09.1,1.69l-.3.29H472.8c-1,0-1-1.78-1-2.67,0-2.08-.89-8.91-1.39-9.31ZM473.1,50.7l.19-.3c.5-1.29-.79-.6-.79-9.21-.1.1-1.49-16.44-2.37-16.44-.5,0-.8.6-.8.8-.1,6.73-1.58,12.37-2.37,18.51a36.93,36.93,0,0,0-.8,5.55.85.85,0,0,0,.5,1.09Zm-4.16-6.24q.44-3,.89-6c.06-.43.13-.86.2-1.29a7.6,7.6,0,0,0,.19,1.58,16,16,0,0,0,.3,2.48,34.91,34.91,0,0,0,.5,7.52h-2.38a19.63,19.63,0,0,1-.1-2.57Z"/><path d="M513.4,70.79A5.14,5.14,0,0,0,518.05,73h3v.1c0,.2-.3,1.29-.3,1.59l-.19.29h-6.44c-.59,0-2.18,0-2.67-.79V72.28c0-.59.29-4.26.29-4.85,0-3.17.5-17.53.5-20.5V40.2c0-.2.29-1.58.29-1.78,0-3.57.5-19.51.5-23v-.8c0-.49,0-1.28-.79-1.28h-6.93c-.3,0-.8-.3-1.09-.3s-.5-.59-.5-.59V5.35s.3-.6.5-.6h1.48v6.74l2.08-.2a3.76,3.76,0,0,0,1.49.1H515v.1c0,1.58-.1,7-.2,11.38-.1,4.85-.29,9.8-.29,11.59a2.11,2.11,0,0,0-.1.39,5.22,5.22,0,0,0-.2,1.39V43c0,1.49-.1,5.74-.2,10-.1,4.46-.3,8.91-.3,10.5,0,.1-.1,1.19-.19,2.28s-.1,2.27-.1,2.57Zm2-2.47c0-.59.29-4.26.29-4.85,0-3.17.5-17.53.5-20.5V36.24c0-.2.3-1.58.3-1.78,0-3.57.49-19.51.49-23v-.8c0-.49,0-1.28-.79-1.28h-6.93c-.3,0-.79-.3-1.09-.3s-.5-.6-.5-.6V1.39s.3-.6.5-.6h1.38c1.79,0,17.33.3,19.21.3h4.56c.29,0,1.09.3,1.38.3a3,3,0,0,1,.2.29V9.6h-8.51l-.3.3-.3.79V44.56c0,2.17-.79,20.49-.79,22.67v1.88c0,.2-.3,1.29-.3,1.59l-.19.29h-6.44c-.59,0-2.18,0-2.67-.79Zm12.37-54.75v-2h3.17v2Z"/><path d="M560.33,68.62c0,1.19,0,3.46,2.77,3.46.79,0,3,.1,5.15.1h5.25c.49,0,2.47.1,4.55.2,1,0,2,.1,2.78.1l.09,1.48s-.29.5-.49.5a1.34,1.34,0,0,0-.5.1h-.79c-1.09,0-8.61-.4-9.6-.4-1.59,0-8.81-.1-10.4-.1-.79,0-.79-1-.79-1.48v-.5c.2-13.17.3-26.34.3-39.41,0-2.47.19-23.07.1-25.54V5.35l.49-.5h1.49v2c0,4.26,0,11.29-.1,16.24v5.64c0,13.07-.1,26.24-.3,39.41Zm2-.5c.2-13.17.3-26.34.3-39.41,0-2.47.2-23.07.1-25.54V1.39l.49-.5h3.37c5-.2,17.13.1,17.13.1l.49.2a16.43,16.43,0,0,1,.3,2.08v.49c0,1.49-.1,4.85-.1,4.85l-.49.5h-1c-3.07,0-5.95-.2-8.92-.1a1.53,1.53,0,0,0-1.58,1c-.1,5.55-.5,12.18-.4,17.53V29.7a2.18,2.18,0,0,0,2.08.8c2.08,0,4.26-.3,6.34-.4.5,0,.79,0,1,.79v1.69c0,.59.1,2.08.1,2.08l-.3,3.56c.2-.69-1.19.69-1.68.79-1.78,0-3.57-.2-5.25-.2-1.09,0-1.58,0-2.08.8,0,.49-.29,2.47-.2,3,0,1.78-.29,12.47-.29,15.24,0,0,.09,1.29.1,1.49v1.78a1.11,1.11,0,0,0,.79.69l12.08-.19c.06,2.8.13,5.61.2,8.41,0,0-.3.5-.5.5a1.27,1.27,0,0,0-.49.1h-.8c-1.09,0-8.61-.4-9.6-.4-1.59,0-8.81-.1-10.4-.1-.79,0-.79-1-.79-1.48ZM574,43v-.69a4.15,4.15,0,0,1,.1-1.49h.2c.79,0,1.59.1,2.38.1a1.42,1.42,0,0,0,.69.1,6.73,6.73,0,0,0-.1,1.19c.1.69-1.19.69-1.68.79Zm.4-30V11c1.58-.1,3.17,0,4.85,0h1.19v1.59l-.5.49h-1C577.36,13.07,575.87,13.07,574.39,13Z"/><path d="M8.13,187.85a9.54,9.54,0,0,1-2.78-.27c-2.87-.6-3-3.46-3.15-6.2,0-.4,0-2,0-2.3.09-1.46.17-2.92.26-4.37l.13-.14,5.34-1,.17.08c-.11,2-.23,3.89-.34,5.84,0,.29,0,1.61,0,1.9.22.28.45.56.67.85.46.49,1.62.44,2.41.28l.31-.06c1.81-.81,2.05-2.88,2.14-4.34.15-2.51-.21-4.58-1.83-6-3.63-3.21-8.62-7.29-8.27-13.28a21.75,21.75,0,0,1,.55-4.31c0-.11.18-.89.18-1a11.15,11.15,0,0,1,4.35-5.64,12.13,12.13,0,0,1,3.48-1.28,9.44,9.44,0,0,1,3.67-.28,2,2,0,0,1,1,.38,14.6,14.6,0,0,1,1.28,1c1.55,1.59,1.22,5.12,1.08,7.45,0,.62-.07,1.25-.11,1.87,0,.11-.15.49-.16.61a.83.83,0,0,1-.2.38l-4.8,1c-.19,0-.28-.4-.28-.4.1-1.75.21-3.62.19-5.34-.23-1.16-.45-1.64-1.74-1.38-2.59.52-2.46,2.45-2.58,4.49-.13,2.21.21,3.69,1.77,5.17,2.95,2.53,6.58,5.79,7.91,9.92.16.37.57,1.62.57,1.62-.12,2-.25,4.09-.37,6.14a3,3,0,0,0-.22.62c-1.12,3.4-3.23,6.24-6.63,7.3Z"/><path d="M30.91,184a3.45,3.45,0,0,1-2.76-.45,6.59,6.59,0,0,1-3-4.12,52.67,52.67,0,0,1-.48-9l0-.47c.12-2,.86-11.27,1-13.2.29-4.85,1.9-13.37,9.61-14.94,5.18-1.06,7.1,1.33,7.63,4.64a4,4,0,0,1,.22,1.4q-.68,10.71-1.34,21.44l-.6,4.71c-.41.72-.46,1.54-.87,2.26-1.93,3.69-3.81,6.61-8.11,7.45Zm2-5.61c1.6-.32,2.19-2,2.26-3.17,0-.71.42-3.86.46-4.5.11-1.83.84-10.61,1-12.54.19-3.15.39-6.29.58-9.44a1.59,1.59,0,0,0-2-1.68l-.18,0a7.83,7.83,0,0,0-1.2.59,7.65,7.65,0,0,0-1.1,1.15,2.15,2.15,0,0,0-.22.57c-.06,1-.49,5.13-.55,6.12q-.66,10.78-1.33,21.57A1.8,1.8,0,0,0,32.9,178.41Z"/><path d="M47,177.8c.82-12.78,1.75-25.63,2.55-38.62l.38-.19,7.22-1.48c.56-.12.58.46.55.93l0,.47c0,.47.59,5.22,1.11,8.55.09.5.32,6.39,1.32,6.88.92-1,1.43-4.18,1.48-5.07.56-3,2.22-12.78,3.16-13.21a74.92,74.92,0,0,1,8-1.48l.29.23c.15,1.42-1.58,27.16-2.34,38.65-.11.78-.22,1.57-.34,2.35l-.13.2-.49.1c.06,0-3.19.45-4.73.76-.59-.12-.62-.58-.59-1.11.48-7.34,1.26-14.73,1.74-22.12.06-.83.16-2.48-.15-2.3-.52.4-.57,1.22-.72,1.72-1.09,4.65-2.08,9.51-3.17,14.22,0-.17-2,10.62-2.45,10.52-.3.06-2.15.55-2.46.61-1.29.25-1.05-3.53-1.13-5-.31-4.72-.69-9.24-1.18-13.91a24.43,24.43,0,0,0-.3-2.85c-.07-.86.07-4-.85-3.84l-.24.8c-1.12,17.68-1.11,20.36-1.46,25.73l-.37.19-4.06.79s-.61.06-.65-.16C46.94,179.35,47,178.57,47,177.8Z"/><path d="M76.7,173.08c.65-7.92,1.23-15.82,1.75-23.64.09-1.48,1-13.81,1-15.28,0-.35,0-.71.07-1.06l.33-.36,2.1-.44c3.16-.77,10.69-2.16,10.69-2.16l.31.05a9.44,9.44,0,0,1,.1,1.21l0,.29c-.06.89-.26,2.92-.26,2.92l-.32.36-.62.13c-1.92.4-3.7.65-5.56,1.1a1.34,1.34,0,0,0-1,.79c-.28,3.33-.79,7.36-.94,10.54,0,.44,0,.87-.08,1.31.34.4.77.31,1.26.21,1.3-.27,2.67-.72,4-1.05.3-.06.49-.1.58.35l-.07,1c0,.36,0,1.24,0,1.24,0,.29-.31,1.88-.33,2.17s-.77.57-1.08.69c-1.11.23-2.21.34-3.26.55-.68.14-1,.2-1.32.74,0,.29-.29,1.52-.25,1.8-.07,1.07-.68,7.52-.79,9.18,0,0,0,.76,0,.88,0,.36,0,.72-.07,1.07,0,.12.28.36.46.32l7.52-1.63c-.07,1.68-.14,3.36-.22,5,0,0-.2.33-.33.36a1.18,1.18,0,0,0-.31.12l-.49.1c-.68.13-5.34.83-6,.95-1,.2-5.47,1-6.46,1.23-.49.1-.45-.5-.43-.8Z"/><path d="M99.41,168.66c0-.36.36-2.61.38-3,.13-1.91,1-10.61,1.16-12.4l.27-4c0-.12.25-1,.26-1.11.14-2.15,1.1-11.8,1.24-13.88,0-.16,0-.31,0-.47s0-.78-.45-.67L98,134c-.19,0-.49-.08-.67,0s-.29-.29-.29-.29c.1-1.43.19-2.85.29-4.28,0,0,.21-.39.33-.42l.87-.18c1.11-.23,10.81-2.09,12-2.34l2.84-.59c.19,0,.67,0,.86,0l.11.15-.33,4.78-5.32,1.11-.19.21-.22.52q-.69,10.19-1.4,20.39c-.09,1.31-1.34,12.46-1.43,13.78l-.08,1.13c0,.12-.24.81-.25,1l-.14.21-4,.8c-.37.08-1.36.27-1.63-.14C99.35,169.41,99.38,169,99.41,168.66Z"/><path d="M117.1,154.58c.23-3.29,1.52-19.29,1.75-22.58.05-.65.36-3.43.4-4,0-.34,0-.68.07-1,.05-.65.27-2.17.27-2.17l.2-.16,5.2-1.1c.12,0,.28.35.28.35,0,.48,0,2.42,0,2.83l0,.3c-.25,3.71-.68,7.22-.94,10.87-.07,1.09-.15,2.19-.23,3.29,0,.18.27.53.46.49l3.58-.74a.63.63,0,0,0,.46-.51c.13-1.86.93-10.52,1.05-12.38.06-.71.41-4,.45-4.69.22-.52.73-.74,1.06-1.11.4.33,4.89-1,4.66-.28q-.42,5.79-.82,11.57c-.28,4-1.91,22.46-2.38,26.47a3.39,3.39,0,0,1-.63,2s-.65.61-.66.79l0,.6-.13.14-3.76.77-.29-.24.48-6.67c.12-1.73.47-9.14.58-10.76l-.29-.23a10.34,10.34,0,0,0-2.33.3l-1.24.26a.74.74,0,0,0-.46.57c-.11.65-.22,1.3-.32,2l-1.59,15.63c0,.18-.46.39-.64.43l-.31.06c-1.23.25-4.37.76-4.37.76l-.28-.23Z"/><path d="M139.32,160.09q.3-3.56.58-7.12.72-9.06,1.43-18.12.51-7.24,1-14.47c0-.18.35-.73.54-.77l5-1.35c.31-.07.47.19.64.45-.06.8-.11,1.6-.17,2.41l-.33,2-1.23,16.25q-.31,2.94-.61,5.88c-.19,1.76-.38,3.52-.51,5.27-.22,3.07-.68,10.17-.68,10.17l-.39.38-4.94,1-.28-.24Z"/><path d="M151.86,157.46c0-.18,0-1.19,0-1.19,1-12.52,1.78-25.2,2.62-37.71,0-.36.22-1.35.78-1.47,3.24-.81,6.26-2.11,6,2.33.46,2,.87,3.91,1.21,5.92,1,4.31,2.26,8.26,3.34,12.61a6.4,6.4,0,0,1,.41,1.82c0,.18.12.81.11,1s.14.63.45.5.37-.07.39-.26c.05-.66.22-3.8.27-4.46s.27-6.13.32-6.79c.17-2.3.76-12.83.87-15.11.11-.14.22-.29.34-.43l4.78-1.09c.5-.11.66.22.82.48,0,.48-.07,1-.11,1.45-.21,3.61-.59,7.15-.8,10.77-.65,8.77-2.63,29.29-2.63,29.29l-.33.37L164.12,157a2,2,0,0,1-.52-.37,1.18,1.18,0,0,1-.31-.77c-.15-3.66-3.29-19.61-4-20.17l-.13,0-.2.22c-.5,6-1,15.13-1.37,21a2.09,2.09,0,0,1-1.26,1.46,7.81,7.81,0,0,1-4.53.39C151.79,158.35,151.82,157.9,151.86,157.46Z"/><path d="M189.66,150.53a10.48,10.48,0,0,1-4.73,2.18c-3.58.75-5.55-.58-6.21-3.85a8.73,8.73,0,0,1-.4-3.5q1-10.91,2-21.79c.41-4.68,1.2-9.56,6.1-12.94a7.24,7.24,0,0,1,3-1.25c3.73-.75,6.73-.87,7.61,2.77a10.48,10.48,0,0,1,.34,2c-.3,3.17-.61,6.35-.91,9.52l-4.4.88-.34-.28c.24-2.72.49-5.45.74-8.17,0,0-.45-.56-.61-.82-.33-.47-1.12-.48-1.68-.42a3.63,3.63,0,0,0-2.95,2c-.08.2-.29.6-.29.6l-2.67,28.71c-.07.85,1.18,1.19,1.86,1a3.43,3.43,0,0,0,2.84-2.81c.25-2.51.51-5,.76-7.52a3.12,3.12,0,0,0-.27-1.32l-.17-.15-1.79.32-.35-.22.39-3.49a.85.85,0,0,1,.6-.67c.68-.14,4-.79,4.77-1,.37-.08,2.86-.73,3.17-.8l.18,0,.35.29c0,.36-.25,2.45-.28,2.75-.12.75-.26,2.63-.28,2.82-.16,2.13-1.3,12.14-1.53,14.23,0,.37-.07,1-.57,1.14l-2.28.42c-.37.07-.64-1.19-1.32-1l-.18,0Z"/><path d="M222.49,96.32h.95c-1.59,13.94-3.49,27.25-5.23,40.56-1.9,14.89-4.28,32.32-6,47.84l-.64,4.44a70.45,70.45,0,0,0-1.1,11.57c1.9,4,3.64,3.16,5.22,3.16h4.6c-.48,1.59-1.27,2.7-2.54,2.7a43.86,43.86,0,0,1-7.92.47c-.79,0-1.9.32-2.53-.79,0-4.91,1.11-10,1.74-14.89,3.33-31,7.92-59.26,11.41-90.15C220.43,99.17,221.22,96.32,222.49,96.32Zm8.23,91.57a10.78,10.78,0,0,1,.48-3.48h.32c2.53.16,7.13.31,10.29.31-.79.48-.47,5.07-.15,8.08,0,.95.15,1.59.15,2.22,0,4.28,2.7,9.35,2.7,9.35a87.27,87.27,0,0,0,9.82-.48c0,1.43.79,2.22.48,2.38,0,1.27-12,1.27-14.74,1.27a14.58,14.58,0,0,1-1.42-6.18c-.32-3.65-.32-13.47-3-13.47Zm4-34.06q.56-5.31,1.1-10.62c.11,1.06.22,2.12.32,3.17l.32,5.55a39.18,39.18,0,0,0,.79,7.44v-.15c.32,2.06.63,4.27.79,6.33l-2.22-.16a66.5,66.5,0,0,1-.79-7.13A33.86,33.86,0,0,1,234.69,153.83Z"/><path d="M280.15,204.37v2.53a3.75,3.75,0,0,1-1.74.95l-10.14-.47c-.47,0-.79-1.27-.79-1.27a18.43,18.43,0,0,1-1-4.44v-7c-.48-27.25-.48-54.18-.95-81.43,0-1.27-.32-11.88-.32-13.15V98.85c0-1.42.32-1.74,1.74-2.21h1.43a32.86,32.86,0,0,0,.16,4c0,3,.16,5.7.16,6.33q.22,20.37.47,40.72c.16,13,.16,27.73.48,40.72v7A26.48,26.48,0,0,0,271,201.2s1.27,2.85,3.49,3Zm9.51-13.63q-.32-13-.64-26c-.15-1.9-.15-3.8-.15-5.7l1.26,9.19a10.58,10.58,0,0,0,.8,4.75l.31,2.22c.48,2.95.95,5.91,1.43,8.87.95,5.54,1.9,11.57,2.53,16.95.69,1.06,1.38,2.11,2.06,3.17h4.44a18.71,18.71,0,0,0-.48,2.22c0,.47-.79.95-.79.95h-7.6l-.8-.95C291.4,201.36,290.45,196,289.66,190.74Zm15.21-94.1h1.42c-1,4.75-1.42,10.77-2.06,16.63-.31,3.33-.79,6.5-1,9.35-.63-2.85-1.11-5.86-1.58-8.72C302.65,104.56,303.76,96.64,304.87,96.64Zm8.24,108.52V185l.47-3c.32-1.74.63-4,.79-5.7q1-7.46,1.9-14.9v37.39a7.8,7.8,0,0,0,3.65,5.87c.79,0,4.59.15,7.29.31,1,0,1.74.16,2.69.16v.48a3.11,3.11,0,0,1-2.22,2.69h-.47c-1.75,0-10.94-.48-12.84-.48A3.37,3.37,0,0,1,313.11,205.16Z"/><path d="M355.4,96.32h1c-1.58,13.94-3.48,27.25-5.22,40.56-1.91,14.89-4.28,32.32-6,47.84-.22,1.48-.43,3-.64,4.44a70.31,70.31,0,0,0-1.11,11.57c1.9,4,3.65,3.16,5.23,3.16h4.6c-.48,1.59-1.27,2.7-2.54,2.7a44,44,0,0,1-7.92.47c-.79,0-1.9.32-2.54-.79,0-4.91,1.11-10,1.75-14.89,3.32-31,7.92-59.26,11.4-90.15C353.34,99.17,354.14,96.32,355.4,96.32Zm8.24,91.57a10.78,10.78,0,0,1,.48-3.48h.31c2.54.16,7.13.31,10.3.31-.79.48-.47,5.07-.16,8.08,0,.95.16,1.59.16,2.22,0,4.28,2.7,9.35,2.7,9.35a87.27,87.27,0,0,0,9.82-.48c0,1.43.79,2.22.47,2.38,0,1.27-12,1.27-14.73,1.27a14.5,14.5,0,0,1-1.43-6.18c-.31-3.65-.31-13.47-3-13.47Zm4-34.06,1.11-10.62.32,3.17c.1,1.85.21,3.7.32,5.55a39.18,39.18,0,0,0,.79,7.44v-.15c.31,2.06.63,4.27.79,6.33l-2.22-.16a66.5,66.5,0,0,1-.79-7.13A33.69,33.69,0,0,1,367.6,153.83Z"/><path d="M399.76,195.66c0,2.85,0,9.66,6.34,9.66a6.26,6.26,0,0,0,2.06-.32l.32-.16H425.9l1.27-.31h.16l1.74.79h2.06v.16c0,1-.32,3.32-1.9,3.32-.48,0-2.38-.31-2.85-.31h-3.17l-1.59-.79h-.79l-1.26.31H402c-.48,0-1.74.48-2.22.48-3.17,0-3.17-4.6-3.17-6.5V193.6l20.12-83.34-16.63-.16c-2.38,0-3.49-.95-3.49-3.48V96.32l.79-.48h2.38v4.44c0,4.91,2.06,6.65,6.66,6.65,4.91,0,7.76.16,12.67.16q-9.66,40-19.33,80Z"/><path d="M447,202.78l2.54,2.54h8.55v2.38l-.95.79H444.44l-.79-.79-.48-4.76V184.25c0-29,.48-56.56.48-85.56,0-.47.79-1.74,1.26-1.74l1.9.16c0,12.83-.15,25.51-.31,38-.16,14.1-.16,28.36-.16,42.78v19Z"/><path d="M474.85,199.62l1,2.21,1.9,1.91h8.71a3.7,3.7,0,0,1-3,3.16H472.64l-.48-.47-.47-1.27v-6.65c.95-32.8.95-66.23,1.42-99,0-.95.32-3.49,1.74-3.49h1.43c-.16,10.14-.32,20.28-.32,30.26-.15,22-.47,44.05-1.11,65.91ZM495.77,183c0-5.23,0-10.46.16-15.84a23.51,23.51,0,0,0,1.42,4.43c2.38,7.77,4.44,16,6.34,24.09l-.16-.32a18.23,18.23,0,0,0,.79,2.69,9.36,9.36,0,0,0,1.43,3.8,27.82,27.82,0,0,0,2.85,2.38l13.78.16v2.53l-.79.8H503.37a9.12,9.12,0,0,1-1.26-1.27,4.49,4.49,0,0,1-1-2.22C499.41,197.08,497.67,190,495.77,183Zm14.1-86.19h2.38v34.38c0,1-.16,5.07-.32,9.35a34.12,34.12,0,0,0-.16,4c-.95-3.17-1.9-6.34-2.69-9.5V97.74Z"/><path d="M579.1,203.74h.63v1.42c0,1,0,2.69-1.26,2.69l-5.87-.15c-1,0-1.9-3.49-3.64-3.49l-.48-.16-1.26.95c-4.28,2.22-6.82,3.33-11.89,3.17-9.18,0-14.57-4.59-17-13.62-1-3.17-1.9-5.87-1.74-9.51q.48-28.36,1-56.72c0-6.65.48-13.31,2.69-19a71.15,71.15,0,0,0-.63,11.72v57.36a32.92,32.92,0,0,0,1.58,9.19l.48,1.42c3.17,10,9.82,14.74,20.28,14.74a25.74,25.74,0,0,0,13-2.86c.16.16.16.32.32.32C576.25,202.47,575.3,203.74,579.1,203.74Zm-17.27-93v-.64s.32-.95.48-1.58c.79-1.27,2.21-1.11,4.11-1.11.64,0,1.11,0,1.43.32a7.43,7.43,0,0,0,1.58,1.9l-.31,20.28,2.85,2.85h7.6v4.91l-11.24-.16-1-.95q.15-10.62.31-21.23s-1.27-1.74-1.74-2.54A6.07,6.07,0,0,0,561.83,110.74Zm.79,50.06h4.44c0,.48.32.79.32.95v19.49c0,1.42-1.43,2.53-3.17,2.69q.22-7.6.47-15.21a10.24,10.24,0,0,0-.95-3.64l-.47-.48h-1.43v-5.07Z"/><path d="M247.2,90.93c3.65,24.88,5.86,46.58,9.19,71.45.32,1.75,2.06,17.91,2.54,19.65.47,5.23.95,10,1.74,15.21,0,1.58.79,2.53.47,2.69,0,1.27-12,1.27-14.73,1.27A14.5,14.5,0,0,1,245,195c-.31-3.64-.31-13.47-3-13.47-4.59,0-11.72-.47-12.67-.47-3.33,4.44-.16,19.17-5.23,19.17a43,43,0,0,1-7.92.48c-.79,0-1.9.31-2.54-.8,0-4.91,1.11-10,1.75-14.89,3.32-31,7.92-59.25,11.4-90.15,0-2.06.8-4.91,2.06-4.91h17.59Zm-7,77.95c.79,0,1.27-1.27,1.27-1.74,0-5.23-1.75-10.93-1.75-15.21-.63-7.13-.95-25.35-4-26.78-.26.32-.52.64-.79.95-1.42,10.94-2.69,22.18-4,33.27a38.53,38.53,0,0,0-.79,7.29c-.48.48.63,1.27.79,1.27Zm6.5-53.23c0-.32-.32-.32-.8-.32-1,0-1.26.32-1.26.79,0,.95,0,1.27.79,1.27C246.41,117.39,246.73,116.6,246.73,115.65Z"/><path d="M274.61,201c-.48,0-.8-1.27-.8-1.27a19,19,0,0,1-.95-4.43v-7c-.47-27.25-.47-54.19-.95-81.44,0-1.26-.31-11.88-.31-13.15V92.52c0-1.43.31-1.75,1.74-2.22,1.27,0,6.5-.48,7.76-.48h12.36l1,.48c.79,1.27,1.27,4.75,1.27,6.49,1.74,12,4.43,26.94,6.65,38.82.48.79.48,1.27,1.27,1.27,2.69,0,4.91-46.58,7.61-46.58h21.38c.48,0,1.43.79,1.43,1.27l.32,6.17q.46,32.08,1,64.17c.95,11.41.95,22.5.95,33.9v3.49A3.1,3.1,0,0,1,334,202h-.48c-1.74,0-10.93-.47-12.83-.47a3.41,3.41,0,0,1-1.27-2.7V136.4c-.16-2.06-.31-4.12-.47-6.18,0-.47-.48-.47-.79-.47-.48,0-.95,0-.95.95,0,.32-.48,2.22-.48,2.53-1.74,14.1-3.8,28.68-5.54,42.78-.48,4.28-1.43,8.4-1.75,12.83,0,.32-.95,6-.95,6.5-.16.74-.32,1.48-.47,2.22,0,.31-.48,2.21-.48,2.53,0,.48-.79.95-.79.95h-7.61l-.79-.95c-.95-8.24-2.69-17.11-4-25.35-1.74-13.31-4-25.19-6.18-38.81-.47-2.22,0-7-2.69-7.77l-.48.8v4.27c0,21.23,1.43,42,1.43,62.9v4.44a3.94,3.94,0,0,1-1.74,1Z"/><path d="M380.12,90.93c3.64,24.88,5.86,46.58,9.19,71.45.31,1.75,2.06,17.91,2.53,19.65.48,5.23,1,10,1.75,15.21,0,1.58.79,2.53.47,2.69,0,1.27-12,1.27-14.73,1.27A14.5,14.5,0,0,1,377.9,195c-.32-3.64-.32-13.47-3-13.47-4.59,0-11.72-.47-12.67-.47-3.33,4.44-.16,19.17-5.23,19.17a43.07,43.07,0,0,1-7.92.48c-.8,0-1.9.31-2.54-.8,0-4.91,1.11-10,1.74-14.89,3.33-31,7.92-59.25,11.41-90.15,0-2.06.79-4.91,2.06-4.91h17.59Zm-7,77.95c.79,0,1.26-1.27,1.27-1.74,0-5.23-1.75-10.93-1.75-15.21-.63-7.13-.95-25.35-4-26.78l-.79.95c-1.43,10.94-2.69,22.18-4,33.27a37.73,37.73,0,0,0-.79,7.29c-.48.48.63,1.27.79,1.27Zm6.49-53.23c0-.32-.31-.32-.79-.32-1,0-1.27.32-1.27.79,0,.95,0,1.27.8,1.27S379.64,116.6,379.64,115.65Z"/><path d="M402.93,187.26q10.06-41.67,20.12-83.34l-16.63-.16c-2.38,0-3.49-1-3.49-3.48V90l.79-.47h3.33c7.29,0,14.42,0,21.23.47,2.38,0,7.6.48,7.6.48l.8.79,1.11,12c-.32,0-1.43.79-.64,2.38l-18.22,82.86c.95,0,3.8.31,4.12.31h14.1l.79.32v7.6a12.11,12.11,0,0,0-.47,2.38c0,1-.32,3.33-1.9,3.33-.48,0-2.38-.32-2.86-.32h-3.16l-1.59-.79h-.79l-1.27.31H408.32c-.48,0-1.75.48-2.22.48-3.17,0-3.17-4.59-3.17-6.49Z"/><path d="M449.51,196.61v-18.7c0-29,.47-56.56.47-85.55,0-.48.79-1.75,1.27-1.75l12.67.48c.8,0,1.27.79,1.75,1.58v39.77c0,13.94-.95,28-.95,42.14,0,8.08-.32,26.78-.32,26.78l-.95.79H450.77l-.79-.79C449.82,199.77,449.67,198.19,449.51,196.61Z"/><path d="M478,192.17c1-32.8,1-66.23,1.43-99,0-1,.32-3.49,1.74-3.49,4.75,0,8.08.32,12.84.32.47,0,2.69,8.71,3,9.67L501,116c3,12.2,6.49,24.88,10,36.92a20.05,20.05,0,0,1,1.27,5.07c0,.47.47,2.22.47,2.69,0,.79.47,1.74,1.27,1.74.47,0,1,0,1-.47V150.18c0-1.74.47-17.26.47-19V91.41c.27-.32.53-.64.8-1h12c1.26,0,1.74,1,2.21,1.74v4c0,9.5-.47,18.54-.47,28-.48,23-1.27,76.37-1.27,76.37l-.79.79H509.71a9,9,0,0,1-1.27-1.27,4.53,4.53,0,0,1-.95-2.22c-2.22-9.19-4.28-18.06-7-26.77l-.32-.95c-.95-1.74-4.91-20.44-6.17-20.44h-.48c-.11.16-.21.32-.32.47-.47,15.69-.47,31.69-.47,47.22a3.72,3.72,0,0,1-3,3.17H479l-.47-.48-.48-1.27Z"/><path d="M573.71,198c-4.12,2.06-6.81,2.54-11.72,2.54-9.19,0-14.58-3.49-17.27-12.52-1-3.33-1.9-5.86-1.9-9.66V121c0-12.35.95-23.6,12.67-30.1a17.06,17.06,0,0,1,7.77-1.58c9.5,0,17.11,1.26,20.43,11.25a39.07,39.07,0,0,1,1.43,5.38v23.61H573.24l-1-1v-20a20.63,20.63,0,0,1-1.75-2.7,5.2,5.2,0,0,0-4.12-1.74c-3.16,0-5.86.48-7.28,3.49a4.76,4.76,0,0,1-.48,1.42v74.31c0,2.21,3.33,3.64,5.07,3.64,3.64,0,6.81-2.38,6.81-5.86V161.59a10.35,10.35,0,0,0-.95-3.48l-.47-.48h-4.6l-.79-.95v-9a1.4,1.4,0,0,1,1.27-1.43h12.36c.95,0,7.28-.47,8.08-.47h.47l1,.95v14.42c0,5.54-.47,31.37-.47,36.91,0,.79,0,2.54-1.27,2.54h-6c-.79,0-1.74-3.49-3.64-3.49H575Z"/><polygon points="100.86 108.28 97.6 97.97 93.91 109.68 25.93 123.37 25.67 128.19 175.36 98.06 175.62 93.23 100.86 108.28"/><polygon points="174.39 169.58 24.7 199.71 24.44 204.53 94.11 190.51 97.6 201.58 101.57 189.01 174.13 174.4 174.39 169.58"/></g></g></svg>