<svg xmlns="http://www.w3.org/2000/svg" viewBox="0 0 860 860"><title>Asset 5</title><g id="Layer_2" data-name="Layer 2"><g id="Layer_1-2" data-name="Layer 1"><path d="M521.68,338a129.86,129.86,0,1,1-221.33,92v-.34H280.3V430c0,82.94,67,150.17,149.7,150.17S579.7,512.94,579.7,430s-67-150.17-149.7-150.17v20.11A128.63,128.63,0,0,1,521.68,338Z"/><path d="M668.32,531A259,259,0,1,1,430,170.55h.33V150.44H430C276.08,150.44,151.31,275.6,151.31,430S276.08,709.56,430,709.56,708.69,584.4,708.69,430H688.64A258.52,258.52,0,0,1,668.32,531Z"/><path d="M236.94,348.2A209.81,209.81,0,1,1,430,640.17h-.33v20.11H430c126.79,0,229.57-103.11,229.57-230.29S556.79,199.71,430,199.71,200.43,302.82,200.43,430h20A209.4,209.4,0,0,1,236.94,348.2Z"/><path d="M278.8,784a44.46,44.46,0,0,0,3.09-22.68,43.7,43.7,0,0,0-2.61-10.55,44.43,44.43,0,0,0-2.23-4.79,37.65,37.65,0,0,0-2.71-4.55q-1,7-1.87,14c-.56,4.65-1,9.29-1.48,14q-1.32,14-2,28.36A38,38,0,0,0,278.8,784Zm-61.1-30.57c1.91-2.92,5.26-5.58,9.71-9.42q5.34-4.65,10.55-9.38c-1.94,7.41-3.83,15-5.48,22.47s-3.19,15-4.61,22.66c-2.29-1.17-4.42-2.11-4.42-2.11a1.69,1.69,0,1,0-1.47,3s6.32,3,10.22,5.29c.91.53,2,1.17,3,1.84l3.21,1.86,3.51,2.1a1.69,1.69,0,1,0,1.78-2.86s-1.82-1.21-3.81-2.39q.56-4.6,1.19-9.18t1.38-9.24c6.87-6.27,13.69-12.87,20.29-19.5q-2,11.37-3.68,22.94-.83,5.79-1.55,11.62l-.7,5.84-.62,5.78c-1.2-.46-2.35-.88-3.18-1.24l-1.38-.55a1.69,1.69,0,1,0-1.22,3.15l1.07.45,1.19.52,1.5.58c2.16.84,4.83,1.91,6.88,2.84.73.33,1.59.74,2.5,1.2a39.25,39.25,0,0,1-9.35,4,43,43,0,0,1-5.11,1.12,32.85,32.85,0,0,1-5.25.35,45.3,45.3,0,0,1-10.79-1.35,47.53,47.53,0,0,1-5.41-1.69,37.44,37.44,0,0,1-5.21-2.55,46.68,46.68,0,0,1-12.88-10.79,43.59,43.59,0,0,1-7.25-14c.16.12.31.24.46.34a7.19,7.19,0,0,0,10.05-2.15c1.78-2.85,1.59-6.37,1.6-10.35a20.64,20.64,0,0,1,3.24-11.29Zm32.71-26.54a3,3,0,0,0,.07-.6,32.88,32.88,0,0,1,11.66,4,42.5,42.5,0,0,1,8.29,6.34q-6.53,6.66-13.31,13.17c-4.52,4.35-9,8.5-13.69,12.69Q246.45,744.44,250.41,726.9Zm-49.5,36.39a38.35,38.35,0,0,1,7-19,43.24,43.24,0,0,1,16.17-13.79,49.91,49.91,0,0,1,4.7-2,48.27,48.27,0,0,1,4.88-1.53,41,41,0,0,1,9.83-1.26q-14.33,12.2-29.65,23.76a38.66,38.66,0,0,0-10.79,10.24A31.41,31.41,0,0,0,200.91,763.29Zm18.29,44.27c12.88,7.17,27.32,8.34,39.37,4.19a42.87,42.87,0,0,0,26.5-25.22,50.4,50.4,0,0,0,3.61-18.45c0-1.52,0-3-.16-4.53s-.27-3-.49-4.53a54.62,54.62,0,0,0-2-8.66c-3.71-11-10.57-20.37-20.57-25.92a36.91,36.91,0,0,0-7.74-3.35,40.84,40.84,0,0,0-4.07-1c-1.35-.3-2.7-.55-4.08-.72a47.05,47.05,0,0,0-16.95,1.18,52.25,52.25,0,0,0-30.17,19.75,43.67,43.67,0,0,0-7.49,35.92,48.72,48.72,0,0,0,8.4,17.59c1,1.36,2.1,2.7,3.26,4s2.47,2.42,3.81,3.56A58,58,0,0,0,219.2,807.56Zm45.16-81.21c1.19.69,2.32,1.46,3.42,2.24A34.56,34.56,0,0,1,271,731a36.87,36.87,0,0,1,5.5,5.8,50.16,50.16,0,0,1,7.58,14.37,51.76,51.76,0,0,1,2.5,17A47.85,47.85,0,0,1,283,785.73a43.09,43.09,0,0,1-10.17,15,40.93,40.93,0,0,1-15.19,9,42.59,42.59,0,0,1-18.42,2,52.26,52.26,0,0,1-9.61-2c-1.61-.48-3.2-1.05-4.79-1.69a46.47,46.47,0,0,1-4.6-2.36,55.79,55.79,0,0,1-8.36-5.88c-1.27-1.09-2.48-2.22-3.61-3.39a38.64,38.64,0,0,1-3.12-3.76,47.26,47.26,0,0,1-8-16.72,41.84,41.84,0,0,1,7-34.31,49.46,49.46,0,0,1,28.69-18.94,43.74,43.74,0,0,1,16.22-1.14c1.32.15,2.6.43,3.92.67a37.73,37.73,0,0,1,3.91,1A35.25,35.25,0,0,1,264.36,726.35Z"/><path d="M699.22,680.3a33.87,33.87,0,0,1-7.59-10.13,35.87,35.87,0,0,1-3.46-11.53,29.57,29.57,0,0,1,.77-11.33,37.32,37.32,0,0,1,1.93-5.29,24.5,24.5,0,0,1,3-4.84A29,29,0,0,1,713.16,627a37.53,37.53,0,0,1,11.8.53,33.18,33.18,0,0,1,11.35,4.7,31.52,31.52,0,0,1,9.76,10.1,26.56,26.56,0,0,1,2.79,6.24,30,30,0,0,1,1.24,6.69c3.07.15,6.17.27,9.28.37-1.26-3.73-2.78-7.57-4.21-11.28s-3-7.41-4.48-11-3.08-7.22-4.66-10.75-3.39-7.13-5.12-10.63a4.56,4.56,0,0,1,.07-4.35c1.26-2.23,2.57-4.43,3.8-6.68A34.56,34.56,0,0,1,735,584.17a28.61,28.61,0,0,1-.71-4.56c-.06-.76-.08-1.52-.07-2.27s0-1.54,0-2.31a24.66,24.66,0,0,1,2.15-8.95,32.23,32.23,0,0,1,6.48-9,29.66,29.66,0,0,1,9.55-5.89,36.08,36.08,0,0,1,11.49-2.41,34,34,0,0,1,12.31,1.78,31.27,31.27,0,0,1,10.88,6.35,28.81,28.81,0,0,1,7.21,9.9A31.34,31.34,0,0,1,796.93,579a27.28,27.28,0,0,1-2.67,12.79,33.55,33.55,0,0,1-3.8,6.46,31.43,31.43,0,0,1-2.33,2.78,20.13,20.13,0,0,1-2.63,2.42q2.58,4.91,5.09,10l3.64-7.14,3.31-7.3a5,5,0,1,1,9,4.13l-2.65,5.87-.67,1.47-.72,1.43L801,614.71l-5.86,11.46a3,3,0,0,1-4.1,1.42l-3.47-1.9-8.73,15.23c-.7,1.29-1.52,2.5-2.3,3.74l-2.36,3.7-4.73,7.39q7.65,0,15.44-.27l4.16-6.52,3.85-6.71a3.14,3.14,0,0,1,4.2-1.35l3.43,2a3.18,3.18,0,0,1,.91,4.38l-2.36,4.1c-.79,1.36-1.55,2.75-2.42,4.06l-5.09,8a5.64,5.64,0,0,1-4.5,2.69c-3.19.08-6.33.16-9.51.17s-6.41-.06-9.58-.13q-9.54-.21-18.83-.76c-.27,1-.58,2.06-.94,3.07a26,26,0,0,1-1.36,2.94,34.09,34.09,0,0,1-3.66,5.55,33.68,33.68,0,0,1-4.58,4.66,30.62,30.62,0,0,1-2.53,1.92,29.77,29.77,0,0,1-2.75,1.55,31.45,31.45,0,0,1-11.75,3.24,28.78,28.78,0,0,1-11.8-1.58A31.27,31.27,0,0,1,699.22,680.3Zm50-88.18c3.39-6.28,6.12-12.87,9.09-19.35a5,5,0,0,1,8.71-.44c4.65,7.14,9.1,14.51,13.49,22.15a22.42,22.42,0,0,0,4.68-6.73,22.72,22.72,0,0,0,1.42-4.24,20.4,20.4,0,0,0,.37-2.14c.06-.73.08-1.45.07-2.17a21.91,21.91,0,0,0-1.78-8.25,21,21,0,0,0-12-11.36,23.39,23.39,0,0,0-16.53,0,20.06,20.06,0,0,0-6.63,4.13,16,16,0,0,0-1.33,1.4,18.43,18.43,0,0,0-1.27,1.51,17.55,17.55,0,0,0-2,3.43,18.66,18.66,0,0,0-1.2,11.41A22.31,22.31,0,0,0,749.26,592.12Zm8,6.09a21.27,21.27,0,0,0,14.7,1.22c-1.33-2.44-2.59-4.81-4-7.23s-2.83-4.79-4.27-7.15l-1.5,3.34-.75,1.67-.83,1.63Zm8.36,45.22,4.12-6.46,3.81-6.65,3.81-6.65,1.9-3.33,1.75-3.41q-2.13-4.33-4.33-8.59a29.64,29.64,0,0,1-23.78-1.66l-2.09,3.65C756.08,621,761.26,632.13,765.61,643.43Zm-63.5-.65a18.15,18.15,0,0,0-3.87,7.39c-.17.67-.31,1.36-.42,2.05a19.61,19.61,0,0,0-.27,2,20.81,20.81,0,0,0,.08,4.17,23.31,23.31,0,0,0,8.49,15.27,21.05,21.05,0,0,0,15.14,4.65,21.51,21.51,0,0,0,4-.71,17.26,17.26,0,0,0,3.76-1.5,21.72,21.72,0,0,0,6.39-5.27,22.21,22.21,0,0,0,3.66-6.25q-11.17-1-22-2.51a3.08,3.08,0,0,1-2.62-3.29l.34-3.82a2.75,2.75,0,0,1,3.15-2.47c3.66.46,7.4.91,11.09,1.27s7.34.62,11.06.88a21.27,21.27,0,0,0-9.66-15,23.31,23.31,0,0,0-15.25-3.58,20.13,20.13,0,0,0-7.09,2.17A18.74,18.74,0,0,0,702.11,642.78Z"/><path d="M333.82,808a16.67,16.67,0,0,1-2.77-6.9,17.66,17.66,0,0,1,.37-7.44A18.85,18.85,0,0,1,342.66,781,17.87,17.87,0,0,1,349.53,771a14.67,14.67,0,0,1,10.94-2.67c3.6-4.4,8.78-6.68,13.87-5.75a12.28,12.28,0,0,1,3,.92,14.56,14.56,0,0,1,2.67,1.43,15.26,15.26,0,0,1,4.22,4.46,14.18,14.18,0,0,1,11.27-4c5.17.37,9.6,3.87,12,9a15.68,15.68,0,0,1,9.91,5.48,17.69,17.69,0,0,1,4,11.48A19,19,0,0,1,429,806.52a17.08,17.08,0,0,1-6,13.1,16.82,16.82,0,0,1,.49,4.29,17.15,17.15,0,0,1-8.81,14.76,14.44,14.44,0,0,1-4.29,9.59,15.68,15.68,0,0,1-10,4.54c-3.12,4.81-9.23,7.68-15.76,7.13a18,18,0,0,1-11.47-6,17.24,17.24,0,0,1-5.83,2.56,16.07,16.07,0,0,1-6.78.2c-6.46-1.14-11.65-5.44-13.43-10.88a15.85,15.85,0,0,1-8.46-7A14.33,14.33,0,0,1,337,828.47a17,17,0,0,1-3.16-20.5Zm46.77,25.59-1.22,10.35c-.42,3.46,2.34,6.67,6.17,7.15a6.86,6.86,0,0,0,7.1-4.21l1.27-3.44,4.54.57a6.37,6.37,0,0,0,6.72-5.85c0-.82,0-1-.78-5.13l3.75-1.16c2.74-1,8.43-5.4,5.34-12.11l-1.69-3.79,3.7-2a9,9,0,0,0-.42-16.11l-3.17-1.48s1-4.56,1-5.08a7.62,7.62,0,0,0-2.36-5.84,6.94,6.94,0,0,0-5.58-2.18l-3.49.36c-.8-3.45-1.46-9-6.92-9.39-3.78-.38-7.25,2.56-7.77,6.78l-4.75,40.11a17.33,17.33,0,0,1,7.6-2.51,1.49,1.49,0,0,1,1.68,1.6l-.28,3a1.5,1.5,0,0,1-1.25,1.33,13.59,13.59,0,0,0-3.35,1,10.49,10.49,0,0,0-2.81,1.93A10,10,0,0,0,380.59,833.56ZM347.07,788.9c-7,1.28-10.16,10.26-4.54,15.47l3.07,2.84L343,810.45c-4.72,5.72-.35,11.43,2.06,13.06,1.1.73,2.19,1.51,3.3,2.2-1.78,3.82-1.9,3.93-2.06,4.74a6.32,6.32,0,0,0,5,7.37l4.55.59.34,3.64a6.87,6.87,0,0,0,5.8,5.87,7.41,7.41,0,0,0,2.74,0,7.12,7.12,0,0,0,2.4-1.06,6.06,6.06,0,0,0,2.64-4.16l1.47-10.32c.67-4.83-2.23-9.15-6.6-11.17a1.48,1.48,0,0,1-.86-1.6l.49-3a1.5,1.5,0,0,1,2-1.13,19.88,19.88,0,0,1,3.62,1.93A17.14,17.14,0,0,1,373,820l5.68-40a7.53,7.53,0,0,0-5.75-8.63c-5.38-1-7.44,4.22-9.1,7.35l-3.29-1.22a6.57,6.57,0,0,0-3-.33,7.15,7.15,0,0,0-2.9.89,7.69,7.69,0,0,0-3.79,5.07c-.12.5-.3,5.16-.3,5.16Z"/><path d="M25.26,443.19a27.46,27.46,0,0,1,19.4,7.36A27.46,27.46,0,0,1,54.05,469l.85,6.62,3.36-.41a17.7,17.7,0,0,1,12.48,3.21,16.65,16.65,0,0,1,6.55,10.39l1.94,10.88c.17.9.29,1.82.5,2.72l.63,2.69,1.24,5.38,1.23,5.38c.41,1.8.8,3.6,1.34,5.36l3,10.63A16.63,16.63,0,0,1,85.83,544,17.75,17.75,0,0,1,76,552.39l-51.24,17.8a3.58,3.58,0,0,1-4.42-2.5A435,435,0,0,1,.12,474.53a31.16,31.16,0,0,1,6.27-21.94A25.31,25.31,0,0,1,25.26,443.19ZM12.57,492a446.52,446.52,0,0,0,15,65.38L72.83,543a6.75,6.75,0,0,0,4-3.27,6.55,6.55,0,0,0,.66-5l-3.1-10.94c-.56-1.81-1-3.66-1.38-5.51l-1.27-5.54-1.27-5.54-.64-2.77c-.22-.92-.35-1.86-.53-2.79l-2-11.19a6.52,6.52,0,0,0-2.77-4.22,6.86,6.86,0,0,0-5-1.2ZM25.7,453.91A15.8,15.8,0,0,0,14.15,460a19.14,19.14,0,0,0-3.92,13.48l.93,7.41,33.64-4.08L43.94,470A17.56,17.56,0,0,0,38,458.28,17.18,17.18,0,0,0,25.7,453.91Zm68,.5c-.54-6.87-10.87-8.88-10.62-5.41l1.08,14.16c.11,2.36.51,4.7.79,7l.89,7,.44,3.52.22,1.76c.08.59.2,1.17.3,1.75l1.25,7,1.24,7c.1.58.19,1.16.31,1.74l.4,1.73.8,3.45,1.59,6.91c.54,2.3,1,4.62,1.7,6.88L98,532.57,102.47,546l1.13,3.35,1.3,3.3,2.6,6.59c1.27,3.25,9.77-2.94,7.25-9.34l-1.13-2.85-.56-1.43-.48-1.45-2-5.81-2-5.81c-.32-1-.68-1.93-1-2.91l-.83-2.95-3.35-11.8c-1-4-1.84-8-2.78-11.94-.44-2-1-4-1.34-6l-1.07-6-1.08-6c-.36-2-.75-4-1-6.06l-1.54-12.18c-.31-2-.44-4.07-.58-6.11Z"/><path d="M632.25,811.1c-10.71-25.93-22-51.84-33.75-77.38l5.12-6.16,2.53-3c.84-1,1.61-2.12,2.42-3.17L613.3,715l2.33-3.14c.77-1,1.56-2.06,2.27-3.17l15.19-4c5-1.56,10-3.21,15.16-4.88,19.46,20.38,39.16,40.21,59.35,59.79A425,425,0,0,1,632.25,811.1Zm51.82-54.23-7.2-7.11L671.48,754c-1.8,1.4-3.7,2.68-5.55,4l-11.18,8,.86-1.31,7.27-11.27c1.19-1.88,2.39-3.7,3.53-5.6l3.3-5.75-6.6-7.31,0,0,0,0c-4.55,3.73-9.45,7-14.22,10.42l-3.6,2.55-1.8,1.27-1.86,1.19L634.17,755l-6.36-11.46,3.82-4.39,1.89-2.19c.64-.72,1.26-1.45,1.85-2.23l10.35-3.92L651,737l4.16-3,4-3.16-10.54-11.66c-3.18,1.28-6.51,2.3-9.78,3.37l-9.73,3.14c-2.08,2.68-4.29,5.2-6.47,7.84s-4.37,5.29-6.65,7.85q6.9,14,13.63,28c3.55-1.94,6.89-4.23,10.3-6.39l5.1-3.28,2.55-1.64c.85-.54,1.7-1.1,2.51-1.7l0,.06c-2.47,3.8-5.1,7.47-7.71,11.26l-4,5.66c-.67,1-1.36,1.88-2.06,2.78l-2.12,2.74,4.15,9.2c2-1.17,4-2.29,6-3.5l5.83-3.74,5.82-3.75,2.92-1.88c1-.62,1.94-1.25,2.87-1.94C669.28,767.93,676.92,762.73,684.07,756.87Z"/><path d="M144.11,680.91c2.07,2.38,5.08,2.7,8.1,1.88a20.27,20.27,0,0,0,7.87-4.43,21,21,0,0,0,5-7.39c1.09-2.87,1.34-5.89-.58-8.1-3.8-4.41-11.91-.85-15.88,2.46S140,676.1,144.11,680.91ZM98.55,614.35C89.51,619.41,82.3,626.67,79,637a36.58,36.58,0,0,0-11.28,4.28c-4.59,2.69-6.25,5.17-9,10a50.19,50.19,0,0,0,4.88,7.11A45.51,45.51,0,0,0,68.81,664a38.72,38.72,0,0,0,6,4.32,43.65,43.65,0,0,0,7.32,3.24,80,80,0,0,0,11.16,19.06,116.34,116.34,0,0,0,8,9.25,94.71,94.71,0,0,0,9.24,7.9c1,11.63,5.15,18.95,13.82,28.06,5.35-1.56,8.17-2.56,11.89-6.36a37.26,37.26,0,0,0,7-10,39.69,39.69,0,0,0,27.06-13A58.38,58.38,0,0,0,183,686a27.83,27.83,0,0,0,1.45-7.33,25.54,25.54,0,0,0,0-3.5,33.72,33.72,0,0,0-.35-3.5,38.24,38.24,0,0,0-4.84-13,81.93,81.93,0,0,0-7.85-11.88l-2.18-2.73-2-2.74-4-5.1-3.92-5c-1.27-1.77-2.61-3.57-4-5.35A107.58,107.58,0,0,0,146,615.82a36.12,36.12,0,0,0-11.17-7.31A27.25,27.25,0,0,0,121,606.35C113.13,607.11,105.43,610.49,98.55,614.35ZM157,635.6l6.54,8.35c2.3,3.09,4.83,6.17,6.83,9.51a40.74,40.74,0,0,1,2.65,5.12,44.62,44.62,0,0,1,1.8,5.29c1.81,7,.48,14.76-7.25,22.39a21.87,21.87,0,0,1-13.44,6.6,16.18,16.18,0,0,1-7.18-1.05,17.22,17.22,0,0,1-3.41-1.8,17.74,17.74,0,0,1-3-2.83c-3.1-3.58-5.44-7.58-8-11.5a80.5,80.5,0,0,0-6.3-9.28c-1.17-1.49-2.37-2.93-3.62-4.32L120.75,660c-.62-.7-1.25-1.38-1.9-2-3.24-3.46-6.54-6.66-9.26-10.5a14.83,14.83,0,0,1-1.93-3.69,17.2,17.2,0,0,1-.93-3.74,16.41,16.41,0,0,1,.7-7.22,22,22,0,0,1,9.63-11.46c9.27-5.67,17.08-5.1,23.48-1.66a36.37,36.37,0,0,1,4.61,3.09,40.85,40.85,0,0,1,4.34,3.8,58.42,58.42,0,0,1,3.93,4.38C154.67,632.49,155.79,634.12,157,635.6Zm-34.12-5.1a20.9,20.9,0,0,1,8.39-3.12,10.33,10.33,0,0,1,4.29.27,6.11,6.11,0,0,1,3.33,2.3c3.37,4.75-2,11.77-6.2,14.82s-12.54,5.88-16.22.69a6.27,6.27,0,0,1-1.17-4.11,10.57,10.57,0,0,1,1.39-4.27A20.07,20.07,0,0,1,122.9,630.5Z"/><path d="M850.37,520.7q-20-6.44-40.15-12.47t-40.49-11.72l-1.4-7.92-.7-3.92c-.24-1.3-.44-2.59-.77-3.89l-3.62-15.38c.64-1.15,1.14-2.33,1.7-3.5l1.65-3.54,3.32-7.16,1.66-3.63L773,443.9l3-7.42q42-2.57,84-6.72A435,435,0,0,1,850.37,520.7ZM836.82,501l1.2-6.8c.41-2.27.62-4.57.94-6.85l1.73-13.71c.16-1.14.26-2.29.34-3.44l.26-3.44.53-6.89c.34-4.59.76-9.18.79-13.78q-15.45.86-30.88,1.51c0,.74,0,1.48-.07,2.21l-.17,2.21-.34,4.42-.67,8.83c-.12,1.47-.19,2.95-.36,4.41l-.56,4.39-1.11,8.79-12.9-3-1.67-11.24c.39-.87.72-1.75,1-2.63l1-2.65,1.94-5.33,8.11-.12.37-5c.11-1.67.31-3.32.32-5l-16.07.45L786.92,458l-1.81,4.77-.9,2.37c-.29.79-.61,1.57-1,2.35l0,.21h.06l1.62,10,.8,5c.13.84.29,1.69.39,2.53l.27,2.53q15.28,3.84,30.52,7.91l.84-4.71c.31-1.56.43-3.16.65-4.73l1.21-9.5c.93-6.31,1.28-12.68,1.78-19l10.51-.18c-.55,6.83-.9,13.68-1.9,20.46s-1.59,13.62-2.93,20.35Z"/><path d="M189.3,156.49l5.87,6.7A19,19,0,0,1,200,175.7a15.41,15.41,0,0,1-4.49,11.49,350,350,0,0,0-24.82,26.69c-1,1.13-1.94,2.34-2.87,3.54L165,221l-5.62,7.18-5.27,7.44-2.64,3.72-1.32,1.85-1.22,1.93a15,15,0,0,1-10.39,6.54,19.87,19.87,0,0,1-6.66-.06,19.23,19.23,0,0,1-6.55-2.47l-7.63-4.59a2.91,2.91,0,0,1-1.09-4l4.59-7.16-44.88-29a11.23,11.23,0,0,1-4.94-7.83,13.13,13.13,0,0,1,2.32-9.76,434.1,434.1,0,0,1,51.08-61.51c5.32-5.11,13.31-5.34,17.74-.54L179,161.88c2-1.95,4.06-4,6.24-5.77A2.93,2.93,0,0,1,189.3,156.49Zm-63.55,67.77a370,370,0,0,1,47.07-56.51l-37.37-38.22a3.2,3.2,0,0,0-4.43.14,425.66,425.66,0,0,0-50,60.24,3.11,3.11,0,0,0,.57,4.34ZM187,166.48c-3.75,3.62-7.57,7.17-11.26,10.84L165,188.64a5.62,5.62,0,0,1-.86,5.51l-7.17,8.3c-1.23,1.36-2.32,2.83-3.45,4.26L150.15,211a5.44,5.44,0,0,1-5.22,1.85c-.8,1-1.63,2-2.39,3.09l-2.26,3.19-4.52,6.38c-3.12,4.18-5.77,8.67-8.61,13l2.5,1.59c4.16,2.61,9.47,1.73,11.83-2l1.26-2,1.36-1.91,2.71-3.81,5.4-7.64,5.77-7.37,2.88-3.68c1-1.24,1.91-2.48,2.95-3.63a356.74,356.74,0,0,1,25.47-27.4c3.19-3,3.08-8.47-.23-12.1Zm-56.93,23.7a3,3,0,0,1-2.59,3.3l-7.63,1L116,195c-1.28.19-2.52.42-3.79.63a2.91,2.91,0,0,1-3.37-2.5c-.18-1.29-.38-2.61-.53-3.9l-.41-3.87-.75-7.82A3.3,3.3,0,0,1,110,174l3-.44a2.87,2.87,0,0,1,3.26,2.65q.44,4.81.93,9.56,4.71-.66,9.36-1.21a3,3,0,0,1,3.26,2.65Zm7.08-11.83a3,3,0,0,1-3.18-2.74q-.31-4.71-.56-9.5-4.69.38-9.48.84a2.87,2.87,0,0,1-3.18-2.74l-.13-3.06a3.31,3.31,0,0,1,2.93-3.39c2.62-.23,5.15-.52,7.8-.66l7.85-.41a2.9,2.9,0,0,1,3,2.88l.17,7.68c.06,2.54.27,5.17.42,7.72a3,3,0,0,1-2.74,3.17Z"/><path d="M806.67,401.21c-1,.94-1.84.7-2.32-1-.21-.72-1.32-4.48-2.51-8.54s-2.42-8.32-3-10.19c-3.6,3-9,7.17-13.58,10.62s-8.43,6.18-9.09,6.61c-1.81,1.16-2.36.11-3.16-1.56-.18-.41-1.29-3-2.89-6.77l-2.64-6.21c-1-2.23-2.21-4.59-3.34-6.93s-2.27-4.64-3.35-6.85c-.54-1.08-1-2.14-1.55-3.15s-1.07-2-1.54-2.85c-2-3.55-3.36-6.07-3.65-6.65-1.46-3-2.17-4.24.77-6.73,1.15-.95,5.41-4.07,10.38-7.81s10.57-8.08,14.26-11c-1.72-3.9-4.74-9.23-7.32-14.08-1.29-2.41-2.53-4.7-3.58-6.65L765.9,307a5.26,5.26,0,0,1,1.3-7.32c.35-.29,3.59-3,8.27-7l3.74-3.29,4-3.68c2.8-2.58,5.76-5.36,8.72-8.2,5.93-5.69,11.83-11.65,16.43-16.43,2.32-2.39,4.24-4.46,5.69-6l2.81-3c3-3.09,4.41-1.46,5.21.22s11.06,25.67,11.79,29.06c1.08,3.25.5,3.75-1,5.7-1.81,2.13-3.64,4.22-5.47,6.3s-3.64,4.12-5.59,6.16q-5.73,6.14-11.55,12T798.6,322.77c-4,3.7-8.12,7.33-12.2,10.84l4.28,9.67c1.37,3.26,2.55,6.57,3.84,9.88s2.56,6.66,3.78,10l3.3,10.22c1.55-1.28,5.86-4.87,9.93-8.41,2-1.76,4.05-3.52,5.54-4.9l2.9-2.7c1.44-1.38,2.32-.24,2.89,1.69.34,1,1.37,5.61,2.49,10.24s2.15,9.23,2.32,10c.33,1.43.8,2.61-1.82,5.09-1.31,1.25-5.84,5.37-10.18,9.14S807.18,400.75,806.67,401.21Zm-21.61-73.55,2.28-2,5.31-4.77c4.34-3.95,10-9.3,15.61-14.86,2.78-2.77,5.64-5.62,8.11-8.27s4.83-5.19,6.81-7.38c4-4.38,6.55-7.39,6.55-7.39.38-.43.57-.39.29-1.22-.07-.2-.66-1.78-1.5-4.05-.43-1.12-.88-2.44-1.44-3.81s-1.2-2.8-1.81-4.25c-2.45-5.75-4.89-11.45-5-11.64-.13-.39-.67-.22-1.2.43-.07.09-.82.91-2.07,2.3l-5.17,5.57c-4.26,4.53-9.94,10.37-15.69,16-2.84,2.79-5.85,5.59-8.64,8.15s-5.43,4.93-7.7,6.92-4.17,3.64-5.52,4.8l-2.18,1.84c-.38.26-.51.29.09,1.37l2.16,3.78c1.14,2.07,2.45,4.77,3.84,7.46,2.7,5.38,5.49,10.75,5.5,11C783.91,328.12,784.24,328.38,785.06,327.66Zm11.86,50c1-.71.73-1,.33-2l-3.41-9.83-.85-2.44L792,361l-2-4.8-3.88-9.5c-.6-1.58-1.39-3.12-2.1-4.67l-2.18-4.62s-4.82,3.93-9.82,7.79L768.37,348l-3.45,2.54c-2.06,1.51-3.56,2.6-3.88,2.86-1.29,1.05-1.11,1.55-.71,2.18.1.16,1.26,2.31,2.95,5.52.83,1.6,1.86,3.47,2.85,5.49l2.94,6.39,3,6.51c1,2.1,1.89,4.08,2.53,5.82l2.44,6.18c.44,1.1.82.73,1.39.37.29-.18,4.73-3.41,9.22-6.85l3.3-2.55,2.84-2.29C795.46,378.8,796.67,377.81,796.92,377.64Zm10.58,16.08c.24.92.56,1.62,1,1.22.26-.22,3.68-3.08,7.16-6.1s7.06-6.18,7.55-6.61c1-.88.86-1.44.65-2.1s-3.81-15.15-4-16-.63-.56-1.1-.15q-7.91,7.2-15.85,13.86l.77,2.33c.49,1.41,1,3.3,1.52,5.24,1,3.88,2.12,7.88,2.24,8.33Z"/><path d="M273.08,129.82l4.58-8c.78-1.34,1.55-2.73,2.37-4l2.5-3.88,5.15-7.86,2.65-4c.9-1.32,1.85-2.55,2.78-3.83a7.51,7.51,0,0,0,.8-7.16L279,53.73a7.25,7.25,0,0,0-6-4.47c-1.76-.19-3.54-.43-5.3-.58l-5.27-.38-10.69-.68-5.43-.29c-1.81-.09-3.58-.07-5.39-.11L230,47.16A9.14,9.14,0,0,0,222.78,51q-6,9.26-11.68,18.34Q205.69,78.74,200.68,88a7.23,7.23,0,0,0,.37,7.47l22.67,33.21a7.53,7.53,0,0,0,6.39,3.31l10-.14c4.57-.34,5.76-1.11,7.31-2.11,5.14-3,6.16-8.13,2.76-14.14L230.47,81.05a1,1,0,0,0-1.42-.34l-4,2.31a1,1,0,0,0-.42,1.39l20.25,34.16c1.56,2.67.54,6.63-4.82,7.1l-10.5.19a1,1,0,0,1-.94-.49L206.49,91.8a1.08,1.08,0,0,1,0-1.11l5-9.23c1.72-3.09,3.44-6.24,5.33-9.2l5.66-9.08,2.91-4.57,1.48-2.3,1.53-2.21a1.35,1.35,0,0,1,1.06-.55l10.82.09,5.34.09,2.64.05c.89,0,1.79.1,2.68.15,7.15.44,14.14.9,21,1.53a1.14,1.14,0,0,1,.91.68L288.4,93.27a1.08,1.08,0,0,1-.1,1c-3.71,5.31-7.24,10.65-10.67,15.86-.42.66-.86,1.29-1.27,2l-1.21,2-2.4,4.06-4.65,8a.91.91,0,0,1-.86.44c-.8-.09-1.6-.19-2.4-.25l-2.37-.16-4.78-.3a.73.73,0,0,0-.72.33,20.18,20.18,0,0,1-2.92,4.45c-.34.42-.83,1.09,1,1.16,4.18.25,8.28.53,12.33.83a6.6,6.6,0,0,0,3.3-.64A5.71,5.71,0,0,0,273.08,129.82Zm3.68-44.71a10.52,10.52,0,0,1-.39,9.86c-1.72,3-5,5.61-9.63,8.09a28.92,28.92,0,0,1-8.41,3,15.42,15.42,0,0,1-6.18-.17A11.45,11.45,0,0,1,245,100a1,1,0,0,1,.36-1.36c1.29-.73,2.55-1.49,3.85-2.2a1,1,0,0,1,1.28.3c2.77,3.73,5.59,4.9,13.48.84a27.86,27.86,0,0,0,3.91-2.37A10.86,10.86,0,0,0,270.33,93a4.39,4.39,0,0,0,.4-4.83,2.9,2.9,0,0,0-2.91-1.91,13.63,13.63,0,0,0-3.81.48,65.29,65.29,0,0,0-6.34,2.2c-4.41,1.73-8.17,2.8-11.29,2.61s-5.54-1.46-7.4-4.8a9.66,9.66,0,0,1-.21-9.39c1.6-3,4.82-5.82,9.45-8.2a32.38,32.38,0,0,1,7.16-2.82,16.2,16.2,0,0,1,6-.25c3.56.59,6.26,2.71,8.28,6.37a1.06,1.06,0,0,1,.07.82,1,1,0,0,1-.55.6L265,75.77a1,1,0,0,1-1.24-.31c-1.52-2-3.07-3-5.08-3.18s-4.41.68-7.7,2.34c-7.36,3.79-6.89,6.69-5.91,8.54,1.19,2.23,2.55,2.36,12.88-1.34,1.28-.45,2.48-.86,3.61-1.21s2.23-.54,3.24-.72a17.35,17.35,0,0,1,5.3-.29c3.05.4,5.16,2.06,6.68,5.51Z"/><path d="M613.59,69.37l-6.36-3.26-3.17-1.63L600.81,63,589.26,87.6l3,1.38,3,1.52,5.93,3ZM496.2,2.59l-12.61,80.6,15.2,2.72c5,1.11,10,2.32,15.05,3.46,9.95,2.6,19.87,5.39,29.56,8.86L539,111.08l5.63,1.9,5.51,2.19,5.52,2.18,2.77,1.09,1.38.54,1.35.62,10.81,4.91,2.71,1.21,2.64,1.37,5.28,2.72,6.2-12.09,6.19,3.17c2,1.1,4,2.31,6,3.45l6,3.47,3,1.74c1,.6,2,1.25,2.93,1.87l11.7,7.54L636,147a370.11,370.11,0,0,1,42,36.5l57.92-57.27a451.12,451.12,0,0,0-51.72-44.93l-14-10-14.41-9.3c-1.2-.76-2.4-1.55-3.62-2.3l-3.71-2.14-7.42-4.29c-2.49-1.41-4.94-2.89-7.46-4.24L626,45.19c-5.1-2.59-10.13-5.31-15.38-7.58l-7.81-3.55L598.9,32.3c-1.3-.6-2.6-1.18-3.94-1.69L579,24.3l-2-.77-2-.7-4.06-1.38-8.12-2.76c-5.39-1.94-10.91-3.41-16.41-5l-8.25-2.34c-1.37-.41-2.77-.72-4.16-1l-4.17-1-8.36-1.93c-2.79-.62-5.56-1.34-8.38-1.8Zm51.64,82.79-6.08-2.06-3-1c-1-.35-2-.69-3.05-1l11.93-39L533.86,38.4,523.32,77.8l-3.08-.88c-1-.29-2.08-.5-3.12-.75l-6.25-1.44c-4.18-.92-8.31-2.06-12.55-2.71l10.3-53.4c19.28,3.9,38.43,8.7,57,15.37Zm58.44,26.33-2.78-1.61-1.39-.8-1.43-.74L595,105.63l-5.71-2.93-2.85-1.47-2.93-1.33-5.77,12.3-11.26-5.1-1.4-.64-1.44-.57-2.87-1.13L555,102.49l24.45-63.41A402.79,402.79,0,0,1,632.8,64.27ZM678.45,165l-4.64-4.45c-1.56-1.47-3.22-2.83-4.83-4.25l26.89-30.6c-3.61-3.11-7.16-6.28-10.82-9.33l-25.8,31.53L649.15,140l24.68-32.42-2.8-2.21c-.94-.73-1.93-1.4-2.9-2.1l-5.81-4.15L638.8,132.36c-6.87-5.13-14.23-9.54-21.39-14.23l28.17-46.47a422.62,422.62,0,0,1,70.13,53.84Z"/><path d="M375.82,48.66a7.45,7.45,0,0,1-1.41,5.48,7.69,7.69,0,0,1-4.77,2.9,7.35,7.35,0,0,1-8.46-6,7.5,7.5,0,0,1,6.14-8.66,7.12,7.12,0,0,1,5.6,1.38A7.4,7.4,0,0,1,375.82,48.66ZM366,69.79c3.7-.64,7.38-1.42,11.11-1.8l1.26,8.83c-3.65.37-7.24,1.14-10.84,1.76Zm16.7-2.51,5.59-.72c1.86-.24,3.72-.5,5.6-.6l.84,8.88c-1.83.1-3.64.35-5.46.59l-5.45.7Zm59.6-19.06-.61,17.83c-.19,4.93-4,8.83-8.53,8.71l-2.73-.07c-.92,0-1.83,0-2.74,0l0,5.95c0,6.56-4.67,12-10.37,12.17-2.17.08-4.35.06-6.51.2l-6.48.5-6.49.49-3.24.24-3.22.42-12.89,1.63c-4.28.69-8.52,1.53-12.79,2.26a9.4,9.4,0,0,1-4.16-.21,11.34,11.34,0,0,1-3.77-1.78A12.66,12.66,0,0,1,352.93,89l-1.29-5.8-5.33,1.23a8.07,8.07,0,0,1-6.3-1.23,9.23,9.23,0,0,1-3.94-5.45l-4.54-17.25a9,9,0,0,1,.93-6.81,8.83,8.83,0,0,1,5.58-4l5.87-1.36-1.29-5.81A17.18,17.18,0,0,1,345.29,29a16.82,16.82,0,0,1,5.18-4.89,20.09,20.09,0,0,1,7.08-2.7l5.11-.91c1.71-.3,3.41-.64,5.13-.82l10.3-1.32L376.46,5.1a4.75,4.75,0,0,1,4.42-5,4.59,4.59,0,0,1,5.4,3.86l1.32,13.32c6.89-.53,13.79-1.09,20.69-1.55a19.48,19.48,0,0,1,13.62,4.88A16.72,16.72,0,0,1,427.49,33l0,6c1,0,2,0,3,0l3,.07A8.87,8.87,0,0,1,442.25,48.22Zm-96.41,8.89-5.73,1.33,4.13,17.35,5.46-1.26Zm72.49-23.84a9.14,9.14,0,0,0-9.6-8.68c-4.16.26-8.31.61-12.47.92S388,26,383.82,26.65c-8.26,1.09-16.56,1.94-24.74,3.58a8.94,8.94,0,0,0-7.5,10.41l9.23,46.68a2.92,2.92,0,0,0,3.2,2.46c4.38-.76,8.74-1.62,13.13-2.32l13.23-1.68,3.3-.43,3.33-.24,6.66-.51,6.65-.51c2.22-.14,4.45-.13,6.67-.21a2.84,2.84,0,0,0,2.6-3ZM433.43,48l-2.95-.07c-1,0-2-.05-2.94,0l.07,17.85c.93,0,1.87,0,2.8,0l2.81.08Zm-34,17.54c3.74-.27,7.49-.6,11.23-.83l.44,8.91c-3.66.23-7.31.56-11,.82Zm11.77-20.18a7.21,7.21,0,1,1-2.44-5.19A7.43,7.43,0,0,1,411.23,45.35Z"/><path d="M78.2,292.28a21.16,21.16,0,0,1,3.87-6.51A13.81,13.81,0,0,1,87.19,282a12.35,12.35,0,0,1,10.49,0,8.39,8.39,0,0,1,4.7,8.18c-.14.59-.25.9-.76.78s-.43-.36-.57-1.2a7.15,7.15,0,0,0-3.19-4.95,8.59,8.59,0,0,0-6.42-.62c-2.85.71-5.85,2.9-8.41,7.65a27,27,0,0,0-2.46,6.25,15.94,15.94,0,0,0-.5,5.37,14.9,14.9,0,0,1,4.68.61c3.3,1.05,5,4.07,6,6.86a14.55,14.55,0,0,1,.81,4.49,5.91,5.91,0,0,1-.35,3.2c-1,1.75-3.21,2.2-6.78-.4a20.61,20.61,0,0,1-6.2-8.87,37.72,37.72,0,0,1-5.52.45,42.5,42.5,0,0,1-5.22-.47,130.07,130.07,0,0,1,9.22,10.12l.76.91a16.51,16.51,0,0,1,5.74.36,9.46,9.46,0,0,1,4,2.19,9.91,9.91,0,0,1,2.45,3.57,15.12,15.12,0,0,1,1,4.15,11.73,11.73,0,0,1-.14,4.4,4.15,4.15,0,0,1-1.25,2.61,2.16,2.16,0,0,1-2.76-.21c-.85-.61-3.41-4.19-5.65-7.33-.62-.85-1.26-1.7-1.87-2.47h0l-1.24-1.56a52.84,52.84,0,0,1-6.39.8,42.24,42.24,0,0,1-5.23-.25s6.72,5.05,12,9.58L83,340.52c1.28,1.12,2.19,1.91,2.73,2.41l.06,0s.15.13.4.38l.2.18h0c1,1,3,3.27,2.58,4.92-.51,2.26-3.19,2.4-5.75,2a25.7,25.7,0,0,1-5-1.42s3.4,2.22,6.26,4.43c2.34,1.8,4.29,3.36,3.73,5.77a3.53,3.53,0,0,1-1.46,2.53c-2.54,1.66-8.37,2.27-12.58,1.14a30.88,30.88,0,0,1-8-3.13c.52,1.48,1.12,3.17,1.8,4.88l1,2.64a1,1,0,0,0,.17,0c4.33-1.31,13.12-.14,19.08,5,5.79,5.17,9.16,13,5.91,20-.51,1.11-2.29,2.4-4.76,3A13.61,13.61,0,0,1,80,393.61c-3.18-1.73-6-5.62-8.17-9.54a70.74,70.74,0,0,1-4.29-9.53c-.12-.28-.26-.59-.37-.91-3.18,2.61-7.11,7.53-11.78,12-1.16,1.13-2.37,2.23-3.62,3.25a47.34,47.34,0,0,1-3.82,2.82,18.91,18.91,0,0,1-8.27,3.2c-1.65.18-4.41-.28-7.77-2.17a29.11,29.11,0,0,1-5.44-4,40.63,40.63,0,0,1-5.7-6.84,71.46,71.46,0,0,1-8-16.46A111.51,111.51,0,0,1,8.85,347c-.16-1.28-.29-2.56-.37-3.83s0-2.53,0-3.77a59.94,59.94,0,0,1,.68-7.32,56.09,56.09,0,0,1,1.46-6.81c.31-1.07.64-2.12,1-3.13s.84-2,1.29-2.89c3.66-7.38,8.85-12.06,14.61-11.92s10.9,3.7,14.91,8.77a35.93,35.93,0,0,1,5,8.56A34.84,34.84,0,0,1,49,329.42c.21.81.36,1.62.53,2.45s.32,1.66.43,2.49a48.57,48.57,0,0,1-.19,15.06c-.4,2-.73,3.83-1.18,5.32a18.94,18.94,0,0,1-1.38,3.57c-2.11,3.95-5.28,6-6.93,6.34-.65.14-1.74.39-2-.33-.14-.44-.06-.59,1.28-1.46s4.92-4.4,5.46-12.28a43.75,43.75,0,0,0-.67-14.36A41.39,41.39,0,0,0,42.47,330a35.89,35.89,0,0,0-2.4-5.34c-3.61-6.49-8.75-10.39-13.37-9.52-1.61.3-3.27,1.51-4.81,3.53a23.05,23.05,0,0,0-3.86,8.4,55.81,55.81,0,0,0,.56,28.25c1.78,6.87,3.63,12.07,5.86,16.11a37.41,37.41,0,0,0,6.18,8.82c3.89,4,7.18,4.68,9,5,5,.84,9.25-1.87,13.27-5.42,2-1.78,4-3.77,5.94-5.66l1.49-1.4c.52-.45,1-.89,1.57-1.32a35.41,35.41,0,0,1,3.2-2.32l.34-.21-1.53-4.28c-1.32-3.73-2.55-7.34-3.11-9a18,18,0,0,1-2.25-2.76,20.6,20.6,0,0,1-1.75-3.28,11.07,11.07,0,0,1-1-6.39c.65-2.85,2.9-3.29,5-3a14.52,14.52,0,0,1,4,1.25s-.36-.21-.33-.36a2.28,2.28,0,0,1,.15-2.6c1.08-1.61,2.23-.87,2.37-.86s1.87,1,4.14,2.24,5.07,2.69,7.3,3.68a8.64,8.64,0,0,0,3.81,1c0-.16-.44-.64-1-1.1h0l-1.14-1c-.11-.07.7.59-.15-.12s-2.13-1.72-3.71-2.94-5.25-4.07-8.71-6.84-6.68-5.4-7.34-5.85c-1.33-.9-2.78-1.6-3.35-2s-.47-2.71.26-5.19,1.83-2.42,2-2.38a41.39,41.39,0,0,0,4.74,3,14.58,14.58,0,0,0,9.48.84l-3-3.25c-1.1-1.17-2.27-2.41-3.4-3.58a37.46,37.46,0,0,0-5.4-5A22.64,22.64,0,0,1,58.23,307c-.56-.46-.33-2.75.52-5.21s2-2.36,2.18-2.3a40.86,40.86,0,0,0,4.58,3.22,15.85,15.85,0,0,0,4.8,1.45c1.51.32,3.84-.13,6.41-.41A22.07,22.07,0,0,1,78.2,292.28Zm6.71,84.79a16.8,16.8,0,0,0-14.7-5.86c.08.21.15.41.23.59l.1.24,1,2.32a51.85,51.85,0,0,0,5.33,8.87c3.67,4.68,9.38,6.14,11,4.22S88.43,381,84.91,377.07ZM71.79,349.4c-1.72-1.14-9.42-6-10.71-5.64-1,.29-.77,2.58,1,5a25.83,25.83,0,0,0,6.81,5.75c5.39,3,11.48,3.43,12.11,2.26.74-1.36-6.42-5.47-9.18-7.34Zm9.89-23.87-.3-.07,2.08,2.73c1,1.37,3.14,4.64,3.14,4.64s.27.46.41.32.14-.66,0-1.21C86.5,330.31,85.07,326.57,81.68,325.53ZM88,315.7a7,7,0,0,0-4.88-6.8,7.41,7.41,0,0,0-2.13-.36,14.91,14.91,0,0,0,3.43,5c2.34,2.11,3.2,2.45,3.58,2.19Z"/><path d="M791.84,196.51c2.46,3.85,1.67,8.68-1.32,13.4s-8.26,9.43-14.38,13.08c-13.23,7.94-16.72,15.95-19.79,23.31s-5.9,14.31-17.11,20.18c-2.93,1.55-5.48,2-7.58,1.43a7,7,0,0,1-2.84-1.5,9.87,9.87,0,0,1-2.29-2.76l-3.67-6.41c-2.71,1.59-4.51,1-5.34-.49-1-1.83-2.16-3.56-3.28-5.32-.94-1.47-.55-3.35,2-5l-1.14-1.78c-2.64,1.7-4.47,1.16-5.37-.25l-1.67-2.64c-.55-.88-1.2-1.7-1.79-2.56-1-1.42-.71-3.32,1.78-5.07l-4.27-6a10.32,10.32,0,0,1-1.55-3.24,6.85,6.85,0,0,1-.19-3.21c.4-2.14,1.84-4.3,4.46-6.32A32.55,32.55,0,0,1,720,208.7a32,32,0,0,1,6-.68c2,0,3.9,0,5.89.13,7.94.27,16.65.42,29.36-8.34,5.85-4.06,12.31-6.75,18-7.49S789.54,192.93,791.84,196.51Zm-81.35,24,5.65,8a13.65,13.65,0,0,1,7.11-2.28L740.82,214c-4,.58-9,.26-14.07.58s-10,1.25-14,4.18Zm44.24,15.26-18.34,11a13.65,13.65,0,0,1-5,5.53l4.86,8.48,2.53-1.39c4.88-2.69,7.82-6.84,10-11.23S752.55,239.12,754.73,235.76Zm29.9-28.42-5.6-8.75c-4.41.54-9.27,3.09-14.19,6.38l-35.4,23.74A21.61,21.61,0,0,1,736.67,240l36.26-22.4C778,214.51,782.3,211.14,784.63,207.34Zm-15.83-2.85a1.25,1.25,0,0,0-.31,1.71l4.84,7.58a1.25,1.25,0,0,0,1.69.43C780.36,210.91,774,201,768.8,204.49Z"/><path d="M481.31,858.91l-11.43-94.48,10.31-1.3,10.23-1.85,5.11-.91c.86-.13,1.7-.31,2.54-.52l2.53-.6,10.12-2.33c.84-.2,1.69-.37,2.53-.6l2.49-.72,5-1.42,5-1.42c1.66-.48,3.34-.91,5-1.51l9.83-3.34c1.63-.58,3.3-1.06,4.9-1.71l4.83-1.92L584.53,833l-6.21,2.45c-2.07.82-4.2,1.47-6.29,2.21L559.39,842c-2.1.75-4.24,1.33-6.38,1.95l-6.41,1.83-6.42,1.82-3.21.91c-1.08.28-2.16.52-3.24.78l-13,3-3.25.74c-1.08.26-2.17.5-3.26.68l-6.56,1.18-13.13,2.34ZM512,778.12,519,807.81l4.38-1,2.2-.51,2.17-.61-7.72-29.4c-1.13-4.34.22-5.92,2.79-6.65s4.4.93,6.34,3c1.75-2,3.49-4,5.16-6.08-3.19-3.65-7.83-6.26-14-4.49a14,14,0,0,0-4.46,2.12,11,11,0,0,0-3.07,3.28C511.35,770.05,510.91,773.61,512,778.12Zm-21.59-9.26a14.36,14.36,0,0,0-8.82,4.84,11.79,11.79,0,0,0-2.49,9.62,12.31,12.31,0,0,0,4.1,8.17,13.56,13.56,0,0,0,3.94,2.33,36.64,36.64,0,0,0,5.19,1.63l2.28.56c3.94,1,5.74,1.78,6.25,4.41.41,2.12-.89,4-3.43,4.5s-4.31-.33-6.23-2.77l-3,2.8-1.52,1.4-1.54,1.32a12.45,12.45,0,0,0,6.07,4.62,15.25,15.25,0,0,0,7.6.3c4-.73,7-2.49,8.76-5.07a11.36,11.36,0,0,0,1.68-9c-1.56-7.14-6.26-9.46-12.77-11.19l-2.24-.57c-4.11-1.09-6.5-1.76-7-4.78-.41-2.54,1.43-4.75,4.75-5.34,3.94-.71,6.64,1.17,9,3.91l5.66-5.64a15.49,15.49,0,0,0-6.69-5.12,18.19,18.19,0,0,0-4.43-1.1A17.55,17.55,0,0,0,490.39,768.86Z"/></g></g></svg>