<svg xmlns="http://www.w3.org/2000/svg" viewBox="0 0 130.77 81.31"><defs><style>.cls-1{fill:#41be84;}</style></defs><title>Asset 3</title><g id="Layer_2" data-name="Layer 2"><g id="Layer_1-2" data-name="Layer 1"><polygon points="14.99 81.31 28.22 58.41 41.44 81.31 14.99 81.31"/><polygon class="cls-1" points="104.32 81.31 117.55 58.4 130.77 81.31 104.32 81.31"/><polygon points="0 53.12 13.22 30.22 26.45 53.12 0 53.12"/><polygon points="26.45 55.75 13.22 78.65 0 55.75 26.45 55.75"/><polygon points="56.22 55.75 43 78.65 29.77 55.75 56.22 55.75"/><polygon points="29.77 53.12 43 30.22 56.22 53.12 29.77 53.12"/><polygon points="86.11 0 72.88 22.9 59.66 0 86.11 0"/><polygon points="71.16 27.48 57.94 50.39 44.72 27.48 71.16 27.48"/><polygon points="44.72 25.19 57.94 2.29 71.16 25.19 44.72 25.19"/><polygon class="cls-1" points="44.72 81.31 57.94 58.41 71.16 81.31 44.72 81.31"/><polygon class="cls-1" points="86.11 55.75 72.88 78.65 59.66 55.75 86.11 55.75"/><polygon class="cls-1" points="59.66 53.12 72.88 30.22 86.11 53.12 59.66 53.12"/><polygon class="cls-1" points="100.99 27.48 87.77 50.39 74.55 27.48 100.99 27.48"/><polygon class="cls-1" points="74.55 25.19 87.77 2.29 100.99 25.19 74.55 25.19"/><polygon class="cls-1" points="115.77 55.75 102.55 78.65 89.33 55.75 115.77 55.75"/><polygon class="cls-1" points="89.33 53.12 102.55 30.22 115.77 53.12 89.33 53.12"/></g></g></svg>